0
SECTION
2
HEADER
9
$ACADVER
1
AC1014
9
$HANDSEED
5
FFFF
0
ENDSEC
0
SECTION
2
TABLES
0
TABLE
2
VPORT
5
8
100
AcDbSymbolTable
0
ENDTAB
0
TABLE
2
LTYPE
5
5
100
AcDbSymbolTable
0
LTYPE
5
14
100
AcDbSymbolTableRecord
100
AcDbLinetypeTableRecord
2
BYBLOCK
70
0
0
LTYPE
5
15
100
AcDbSymbolTableRecord
100
AcDbLinetypeTableRecord
2
BYLAYER
70
0
0
ENDTAB
0
TABLE
2
LAYER
5
2
100
AcDbSymbolTable
70
2
0
LAYER
5
50
100
AcDbSymbolTableRecord
100
AcDbLayerTableRecord
2
0
70
0
6
CONTINUOUS
0
ENDTAB
0
TABLE
2
STYLE
5
3
100
AcDbSymbolTable
70
1
0
STYLE
5
11
100
AcDbSymbolTableRecord
100
AcDbTextStyleTableRecord
2
STANDARD
70
0
0
ENDTAB
0
TABLE
2
VIEW
5
6
100
AcDbSymbolTable
70
0
0
ENDTAB
0
TABLE
2
UCS
5
7
100
AcDbSymbolTable
70
0
0
ENDTAB
0
TABLE
2
APPID
5
9
100
AcDbSymbolTable
70
2
0
APPID
5
12
100
AcDbSymbolTableRecord
100
AcDbRegAppTableRecord
2
ACAD
70
0
0
ENDTAB
0
TABLE
2
DIMSTYLE
5
A
100
AcDbSymbolTable
70
1
0
ENDTAB
0
TABLE
2
BLOCK_RECORD
5
1
100
AcDbSymbolTable
70
1
0
BLOCK_RECORD
5
1F
100
AcDbSymbolTableRecord
100
AcDbBlockTableRecord
2
*MODEL_SPACE
0
BLOCK_RECORD
5
1B
100
AcDbSymbolTableRecord
100
AcDbBlockTableRecord
2
*PAPER_SPACE
0
ENDTAB
0
ENDSEC
0
SECTION
2
BLOCKS
0
BLOCK
5
20
100
AcDbEntity
100
AcDbBlockBegin
2
*MODEL_SPACE
0
ENDBLK
5
21
100
AcDbEntity
100
AcDbBlockEnd
0
BLOCK
5
1C
100
AcDbEntity
100
AcDbBlockBegin
2
*PAPER_SPACE
0
ENDBLK
5
1D
100
AcDbEntity
100
AcDbBlockEnd
0
ENDSEC
0
SECTION
2
ENTITIES
0
LINE
5
100
100
AcDbEntity
8
0
100
AcDbLine
10
-4.0758886886935999
20
9.8556271193211202
30
0
11
4.0735830099386448
21
9.8556271193210279
31
0
0
SPLINE
5
101
100
AcDbEntity
8
0
100
AcDbSpline
70
1064
71
5
72
57
73
51
74
0
42
0.000000001
43
0.0000000001
44
0.0000000001
40
0.1037875281132352
40
0.1037875281132352
40
0.1037875281132352
40
0.1037875281132352
40
0.1037875281132352
40
0.1037875281132352
40
0.11249999999999999
40
0.12499999999999999
40
0.13749999999999998
40
0.14999999999999999
40
0.16250000000000001
40
0.17500000000000002
40
0.18750000000000003
40
0.20000000000000004
40
0.21250000000000005
40
0.22500000000000006
40
0.23750000000000007
40
0.25000000000000006
40
0.26250000000000007
40
0.27500000000000008
40
0.28750000000000009
40
0.3000000000000001
40
0.31250000000000011
40
0.32500000000000012
40
0.33750000000000013
40
0.35000000000000014
40
0.36250000000000016
40
0.37500000000000017
40
0.38750000000000018
40
0.40000000000000019
40
0.4125000000000002
40
0.42500000000000021
40
0.43750000000000022
40
0.45000000000000023
40
0.46250000000000024
40
0.47500000000000026
40
0.48750000000000027
40
0.50000000000000022
40
0.51250000000000018
40
0.52500000000000013
40
0.53750000000000009
40
0.55000000000000004
40
0.5625
40
0.57499999999999996
40
0.58749999999999991
40
0.59999999999999987
40
0.61249999999999982
40
0.62499999999999978
40
0.63749999999999973
40
0.64999999999999969
40
0.66249999999999964
40
0.66580650466201674
40
0.66580650466201674
40
0.66580650466201674
40
0.66580650466201674
40
0.66580650466201674
40
0.66580650466201674
10
4.0735830099386456
20
9.8556271193210279
30
0
10
4.0695790817059159
20
9.8601965374473153
30
0
10
4.0599211343606454
20
9.8713367436184853
30
0
10
4.0449126961263513
20
9.8891002915996964
30
0
10
4.0249751164092622
20
9.9136205383455547
30
0
10
4.0002123643003733
20
9.9453681872432735
30
0
10
3.9737864000031027
20
9.9803165583828104
30
0
10
3.9468382631059113
20
10.016807465840508
30
0
10
3.9195603216145916
20
10.054945388464379
30
0
10
3.8926491818040403
20
10.094591019444387
30
0
10
3.866986876530536
20
10.135483881320406
30
0
10
3.8434044445464148
20
10.177327651262061
30
0
10
3.8223545500246319
20
10.219914863636292
30
0
10
3.8038298383999432
20
10.263147079108544
30
0
10
3.7875905286674216
20
10.306921864693289
30
0
10
3.7733093335298715
20
10.351058367317368
30
0
10
3.7607626570085513
20
10.395194748072662
30
0
10
3.7499646577292141
20
10.438733372084329
30
0
10
3.7409912780719061
20
10.481084670003249
30
0
10
3.7338303744103776
20
10.521885982419612
30
0
10
3.7282282295585834
20
10.561221786269169
30
0
10
3.7235202859752565
20
10.599866195295263
30
0
10
3.7189068956775073
20
10.638948358803216
30
0
10
3.7137627925337453
20
10.679576788085443
30
0
10
3.7079186023653343
20
10.722494801407903
30
0
10
3.701995897724164
20
10.767680434585827
30
0
10
3.6971092394784262
20
10.814588873797019
30
0
10
3.6944855558961267
20
10.862476951184162
30
0
10
3.6951462269916426
20
10.910667554500243
30
0
10
3.699482165052459
20
10.958913850210655
30
0
10
3.7072575001098382
20
11.007363388539444
30
0
10
3.7178649263333297
20
11.056278482773598
30
0
10
3.7305010801341201
20
11.105848251357834
30
0
10
3.7443817194088131
20
11.155923142243472
30
0
10
3.7589177580767896
20
11.205902534678811
30
0
10
3.7737899503192844
20
11.255110237864869
30
0
10
3.7890488046606459
20
11.303115609486403
30
0
10
3.8051826109658493
20
11.350032881248001
30
0
10
3.8232564895310448
20
11.396939787868739
30
0
10
3.844653504435108
20
11.445539843157436
30
0
10
3.8706814254396478
20
11.497565954833636
30
0
10
3.9022330565551213
20
11.554283640776365
30
0
10
3.9394032196299555
20
11.615921680811816
30
0
10
3.9811829714079918
20
11.681221136378376
30
0
10
4.0259030340768645
20
11.748098941720592
30
0
10
4.0716111220925164
20
11.814212319637718
30
0
10
4.1098912147876643
20
11.868269147023705
30
0
10
4.1380528603035973
20
11.907626503949562
30
0
10
4.1569754582597271
20
11.934069730768451
30
0
10
4.1673605963155902
20
11.948621614760086
30
0
10
4.1695252127578772
20
11.951656842727431
30
0
0
ARC
5
102
100
AcDbEntity
8
0
100
AcDbCircle
10
-1.3978236763177709e-15
20
14.599999673664568
30
0
40
4.9394999999999749
100
AcDbArc
50
-32.422346191215794
51
216.38212607933608
0
SPLINE
5
103
100
AcDbEntity
8
0
100
AcDbSpline
70
1064
71
3
72
8
73
4
74
0
42
0.000000001
43
0.0000000001
44
0.0000000001
40
0.022172136746193033
40
0.022172136746193033
40
0.022172136746193033
40
0.022172136746193033
40
0.044729383934612989
40
0.044729383934612989
40
0.044729383934612989
40
0.044729383934612989
10
-3.9766871301707192
20
11.670047502825053
30
0
10
-3.9204202922057263
20
11.583324984300614
30
0
10
-3.8651699432983992
20
11.488681697485346
30
0
10
-3.8174584832718339
20
11.370053578620563
30
0
0
SPLINE
5
104
100
AcDbEntity
8
0
100
AcDbSpline
70
1064
71
5
72
17
73
11
74
0
42
0.000000001
43
0.0000000001
44
0.0000000001
40
-0.81811336506978105
40
-0.81811336506978105
40
-0.81811336506978105
40
-0.81811336506978105
40
-0.81811336506978105
40
-0.81811336506978105
40
-0.80000000000000016
40
-0.76000000000000012
40
-0.72000000000000008
40
-0.68000000000000005
40
-0.64000000000000001
40
-0.63521944276572995
40
-0.63521944276572995
40
-0.63521944276572995
40
-0.63521944276572995
40
-0.63521944276572995
40
-0.63521944276572995
10
-3.8174584832719525
20
11.37005357862051
30
0
10
-3.8144703749014184
20
11.362952638859987
30
0
10
-3.8050039321480438
20
11.340133049321734
30
0
10
-3.7896548296528891
20
11.301395776017376
30
0
10
-3.7694072569212489
20
11.246294733587746
30
0
10
-3.7454659789148015
20
11.173715870273689
30
0
10
-3.7266874542404569
20
11.103379545546726
30
0
10
-3.7153124573929364
20
11.047307916899989
30
0
10
-3.7091919110147464
20
11.00770845491982
30
0
10
-3.706443473943061
20
10.98636035434674
30
0
10
-3.7061556268924596
20
10.984076398181493
30
0
0
SPLINE
5
105
100
AcDbEntity
8
0
100
AcDbSpline
70
1064
71
3
72
10
73
6
74
0
42
0.000000001
43
0.0000000001
44
0.0000000001
40
0.066282136138035339
40
0.066282136138035339
40
0.066282136138035339
40
0.066282136138035339
40
0.067629974805935772
40
0.067629974805935772
40
0.073191936681888739
40
0.073191936681888739
40
0.073191936681888739
40
0.073191936681888739
10
-3.7061556268924893
20
10.984076398181484
30
0
10
-3.704848804996173
20
10.975634573324768
30
0
10
-3.7036630022719121
20
10.967173215785042
30
0
10
-3.6982671380320111
20
10.923688786370198
30
0
10
-3.696929146599512
20
10.891688378229841
30
0
10
-3.6976036441589946
20
10.860487223277959
30
0
0
SPLINE
5
106
100
AcDbEntity
8
0
100
AcDbSpline
70
1064
71
5
72
17
73
11
74
0
42
0.000000001
43
0.0000000001
44
0.0000000001
40
-0.58569192179738727
40
-0.58569192179738727
40
-0.58569192179738727
40
-0.58569192179738727
40
-0.58569192179738727
40
-0.58569192179738727
40
-0.55999999999999994
40
-0.51999999999999991
40
-0.47999999999999993
40
-0.43999999999999995
40
-0.39999999999999997
40
-0.39061026380571978
40
-0.39061026380571978
40
-0.39061026380571978
40
-0.39061026380571978
40
-0.39061026380571978
40
-0.39061026380571978
10
-3.6976036441590399
20
10.860487223277961
30
0
10
-3.6974059322459945
20
10.847138947943964
30
0
10
-3.6973695540458613
20
10.812688045109407
30
0
10
-3.6992481362709304
20
10.756033052706865
30
0
10
-3.7060654675583482
20
10.675918642870823
30
0
10
-3.7212337448029014
20
10.573410419846168
30
0
10
-3.7399154343989154
20
10.483720760470147
30
0
10
-3.7560245173202693
20
10.42009006865214
30
0
10
-3.7676556851129739
20
10.379145483360443
30
0
10
-3.7741848000987432
20
10.357516401283647
30
0
10
-3.7754294644097586
20
10.353440743997339
30
0
0
SPLINE
5
107
100
AcDbEntity
8
0
100
AcDbSpline
70
1064
71
3
72
10
73
6
74
0
42
0.000000001
43
0.0000000001
44
0.0000000001
40
0.10194873828070052
40
0.10194873828070052
40
0.10194873828070052
40
0.10194873828070052
40
0.10370667945017713
40
0.10370667945017713
40
0.10452321374441383
40
0.10452321374441383
40
0.10452321374441383
40
0.10452321374441383
10
-3.7754294644098185
20
10.353440743997346
30
0
10
-3.7784384722357127
20
10.343264011523651
30
0
10
-3.7816049885899226
20
10.333131130942071
30
0
10
-3.7864949174680582
20
10.318363034317418
30
0
10
-3.788085794290887
20
10.313693153693738
30
0
10
-3.7897156974589548
20
10.30903726291093
30
0
0
SPLINE
5
108
100
AcDbEntity
8
0
100
AcDbSpline
70
1064
71
5
72
17
73
11
74
0
42
0.000000001
43
0.0000000001
44
0.0000000001
40
-0.36926441285817901
40
-0.36926441285817901
40
-0.36926441285817901
40
-0.36926441285817901
40
-0.36926441285817901
40
-0.36926441285817901
40
-0.35999999999999999
40
-0.32000000000000001
40
-0.28000000000000003
40
-0.24000000000000002
40
-0.20000000000000001
40
-0.18226268095487477
40
-0.18226268095487477
40
-0.18226268095487477
40
-0.18226268095487477
40
-0.18226268095487477
40
-0.18226268095487477
10
-3.7897156974589707
20
10.309037262910934
30
0
10
-3.7909649265126868
20
10.305352883986028
30
0
10
-3.797615321207882
20
10.285959643973966
30
0
10
-3.8097262100381144
20
10.252742988496239
30
0
10
-3.8272786749252417
20
10.209742234021434
30
0
10
-3.8501066080508628
20
10.162382522660526
30
0
10
-3.8741322267932041
20
10.121425704079076
30
0
10
-3.8931899562708487
20
10.093108055623413
30
0
10
-3.9071279616934458
20
10.073742451855388
30
0
10
-3.915539200084857
20
10.062390888958689
30
0
10
-3.9181408192430043
20
10.058907534429009
30
0
0
SPLINE
5
109
100
AcDbEntity
8
0
100
AcDbSpline
70
1064
71
3
72
10
73
6
74
0
42
0.000000001
43
0.0000000001
44
0.0000000001
40
0.12000462017675868
40
0.12000462017675868
40
0.12000462017675868
40
0.12000462017675868
40
0.13344584583409563
40
0.13344584583409563
40
0.13408759902114109
40
0.13408759902114109
40
0.13408759902114109
40
0.13408759902114109
10
-3.9181408192430158
20
10.058907534429018
30
0
10
-3.9638007403506146
20
9.9906584085810017
30
0
10
-4.0152336710607557
20
9.9259052884132117
30
0
10
-4.0708025463337929
20
9.8614551931250318
30
0
10
-4.0733422224134532
20
9.8585332326433743
30
0
10
-4.0758886886935999
20
9.8556271193211202
30
0
0
ENDSEC
0
SECTION
2
OBJECTS
0
DICTIONARY
5
C
100
AcDbDictionary
3
ACAD_GROUP
350
D
3
ACAD_MLINESTYLE
350
17
0
DICTIONARY
5
D
100
AcDbDictionary
0
DICTIONARY
5
1A
330
C
100
AcDbDictionary
0
DICTIONARY
5
17
100
AcDbDictionary
0
ENDSEC
0
EOF
