<?xml version="1.0" encoding="utf-8"?>
<!-- Generator: Adobe Illustrator 18.1.1, SVG Export Plug-In . SVG Version: 6.00 Build 0)  -->
<svg version="1.1"
	 id="_x30_" xmlns:cc="http://creativecommons.org/ns#" xmlns:inkscape="http://www.inkscape.org/namespaces/inkscape" xmlns:sodipodi="http://sodipodi.sourceforge.net/DTD/sodipodi-0.dtd" xmlns:svg="http://www.w3.org/2000/svg" xmlns:rdf="http://www.w3.org/1999/02/22-rdf-syntax-ns#" xmlns:dc="http://purl.org/dc/elements/1.1/" sodipodi:docname="FrontBoilerV2.1.svg" inkscape:version="0.91 r13725"
	 xmlns="http://www.w3.org/2000/svg" xmlns:xlink="http://www.w3.org/1999/xlink" x="0px" y="0px" viewBox="0 0 595.3 841.9"
	 enable-background="new 0 0 595.3 841.9" xml:space="preserve">
<sodipodi:namedview  bordercolor="#666666" id="namedview59" showgrid="false" inkscape:cx="304.14954" inkscape:zoom="12.74" pagecolor="#ffffff" gridtolerance="10" guidetolerance="10" inkscape:cy="419.39449" objecttolerance="10" borderopacity="1" inkscape:current-layer="_x30_" inkscape:window-maximized="1" inkscape:window-y="0" inkscape:window-x="0" inkscape:window-height="806" inkscape:window-width="1440" inkscape:pageshadow="2" inkscape:pageopacity="0">
	</sodipodi:namedview>
<g id="g3" transform="matrix(1.1620255,0,0,1.1620255,-46.038948,-70.392723)">
	<g id="LINE">
		
			<path id="line6" inkscape:connector-curvature="0" fill="none" stroke="#000000" stroke-width="0.7087" stroke-linecap="round" stroke-linejoin="round" stroke-miterlimit="10" d="
			M286.5,434.1h19.6"/>
	</g>
	<g id="ARC">
		
			<path id="path9" inkscape:connector-curvature="0" fill="none" stroke="#000000" stroke-width="0.7087" stroke-linecap="round" stroke-linejoin="round" stroke-miterlimit="10" d="
			M306.4,429.1c3.5-5.5,1.9-12.9-3.6-16.4c-5.5-3.5-12.9-1.9-16.4,3.6c-2.6,4.2-2.5,9.5,0.4,13.4"/>
	</g>
	<g id="SPLINE_1_">
		
			<path id="path12" inkscape:connector-curvature="0" fill="none" stroke="#000000" stroke-width="0.7087" stroke-linecap="round" stroke-linejoin="round" stroke-miterlimit="10" d="
			M286.8,429.8c0.2,0.2,0.3,0.4,0.4,0.8"/>
	</g>
	<g id="SPLINE_2_">
		
			<path id="polyline15" inkscape:connector-curvature="0" fill="none" stroke="#000000" stroke-width="0.7087" stroke-linecap="round" stroke-linejoin="round" stroke-miterlimit="10" d="
			M287.2,430.4L287.2,430.4l0.1,0.3v0.1l0.1,0.1v0.2v0.1l0.1,0.2l0,0v0.1"/>
	</g>
	<g id="SPLINE_3_">
		
			<path id="path18" inkscape:connector-curvature="0" fill="none" stroke="#000000" stroke-width="0.7087" stroke-linecap="round" stroke-linejoin="round" stroke-miterlimit="10" d="
			M287.5,431.4C287.5,431.4,287.5,431.5,287.5,431.4c0,0.2,0,0.3,0,0.3"/>
	</g>
	<g id="SPLINE_4_">
		
			<path id="polyline21" inkscape:connector-curvature="0" fill="none" stroke="#000000" stroke-width="0.7087" stroke-linecap="round" stroke-linejoin="round" stroke-miterlimit="10" d="
			M287.5,431.7L287.5,431.7v0.3v0.2v0.2l-0.1,0.2v0.2l-0.1,0.1v0.1v0.1"/>
	</g>
	<g id="SPLINE_5_">
		
			<path id="path24" inkscape:connector-curvature="0" fill="none" stroke="#000000" stroke-width="0.7087" stroke-linecap="round" stroke-linejoin="round" stroke-miterlimit="10" d="
			M287.3,432.9C287.3,432.9,287.3,433,287.3,432.9C287.3,433,287.3,433,287.3,432.9"/>
	</g>
	<g id="SPLINE_6_">
		
			<path id="polyline27" inkscape:connector-curvature="0" fill="none" stroke="#000000" stroke-width="0.7087" stroke-linecap="round" stroke-linejoin="round" stroke-miterlimit="10" d="
			M287.3,433L287.3,433l-0.1,0.2l0,0v0.1h-0.1v0.1l0,0v0.1l0,0H287v0.1l0,0l-0.1,0.1l0,0"/>
	</g>
	<g id="SPLINE_7_">
		
			<path id="path30" inkscape:connector-curvature="0" fill="none" stroke="#000000" stroke-width="0.7087" stroke-linecap="round" stroke-linejoin="round" stroke-miterlimit="10" d="
			M287,433.6c-0.1,0.2-0.3,0.3-0.3,0.5l0,0"/>
	</g>
	<g id="LINE_1_">
		
			<path id="line33" inkscape:connector-curvature="0" fill="none" stroke="#000000" stroke-width="0.7087" stroke-linecap="round" stroke-linejoin="round" stroke-miterlimit="10" d="
			M306.2,434.1h-19.6"/>
	</g>
	<g id="SPLINE_14_">
		
			<path id="path36" inkscape:connector-curvature="0" fill="none" stroke="#000000" stroke-width="0.7087" stroke-linecap="round" stroke-linejoin="round" stroke-miterlimit="10" d="
			M305.9,429.8c-0.2,0.2-0.3,0.4-0.4,0.8"/>
	</g>
	<g id="SPLINE_13_">
		
			<path id="polyline39" inkscape:connector-curvature="0" fill="none" stroke="#000000" stroke-width="0.7087" stroke-linecap="round" stroke-linejoin="round" stroke-miterlimit="10" d="
			M305.5,430.4L305.5,430.4l-0.1,0.3v0.1l-0.1,0.1v0.2v0.1l-0.1,0.2l0,0v0.1"/>
	</g>
	<g id="SPLINE_12_">
		
			<path id="path42" inkscape:connector-curvature="0" fill="none" stroke="#000000" stroke-width="0.7087" stroke-linecap="round" stroke-linejoin="round" stroke-miterlimit="10" d="
			M305.3,431.4C305.3,431.4,305.3,431.5,305.3,431.4c0,0.2,0,0.3,0,0.3"/>
	</g>
	<g id="SPLINE_11_">
		
			<path id="polyline45" inkscape:connector-curvature="0" fill="none" stroke="#000000" stroke-width="0.7087" stroke-linecap="round" stroke-linejoin="round" stroke-miterlimit="10" d="
			M305.3,431.7L305.3,431.7v0.3v0.2v0.2l0.1,0.2v0.2l0.1,0.1v0.1v0.1"/>
	</g>
	<g id="SPLINE_10_">
		
			<path id="path48" inkscape:connector-curvature="0" fill="none" stroke="#000000" stroke-width="0.7087" stroke-linecap="round" stroke-linejoin="round" stroke-miterlimit="10" d="
			M305.4,432.9C305.4,432.9,305.4,433,305.4,432.9C305.4,433,305.4,433,305.4,432.9"/>
	</g>
	<g id="SPLINE_9_">
		
			<path id="polyline51" inkscape:connector-curvature="0" fill="none" stroke="#000000" stroke-width="0.7087" stroke-linecap="round" stroke-linejoin="round" stroke-miterlimit="10" d="
			M305.4,433L305.4,433l0.1,0.2l0,0v0.1h0.1v0.1l0,0v0.1l0,0h0.1v0.1l0,0l0.1,0.1l0,0"/>
	</g>
	<g id="SPLINE_8_">
		
			<path id="path54" inkscape:connector-curvature="0" fill="none" stroke="#000000" stroke-width="0.7087" stroke-linecap="round" stroke-linejoin="round" stroke-miterlimit="10" d="
			M305.8,433.6c0.1,0.2,0.3,0.3,0.3,0.5l0,0"/>
	</g>
	<g id="SPLINE_15_">
		
			<path id="path57" inkscape:connector-curvature="0" fill="none" stroke="#000000" stroke-width="0.7087" stroke-linecap="round" stroke-linejoin="round" stroke-miterlimit="10" d="
			M305.9,429.9c0.2-0.3,0.3-0.6,0.4-0.8"/>
	</g>
</g>
</svg>
