<?xml version="1.0" encoding="UTF-8" standalone="no"?>
<!-- Generator: Adobe Illustrator 18.1.1, SVG Export Plug-In . SVG Version: 6.00 Build 0)  -->

<svg
   xmlns:dc="http://purl.org/dc/elements/1.1/"
   xmlns:cc="http://creativecommons.org/ns#"
   xmlns:rdf="http://www.w3.org/1999/02/22-rdf-syntax-ns#"
   xmlns:svg="http://www.w3.org/2000/svg"
   xmlns="http://www.w3.org/2000/svg"
   xmlns:sodipodi="http://sodipodi.sourceforge.net/DTD/sodipodi-0.dtd"
   xmlns:inkscape="http://www.inkscape.org/namespaces/inkscape"
   version="1.1"
   id="_x30_"
   x="0px"
   y="0px"
   viewBox="0 0 595.3 841.9"
   enable-background="new 0 0 595.3 841.9"
   xml:space="preserve"
   inkscape:version="0.91 r13725"
   sodipodi:docname="FrontBoilerV2.1.svg"><metadata
     id="metadata63"><rdf:RDF><cc:Work
         rdf:about=""><dc:format>image/svg+xml</dc:format><dc:type
           rdf:resource="http://purl.org/dc/dcmitype/StillImage" /><dc:title></dc:title></cc:Work></rdf:RDF></metadata><defs
     id="defs61" /><sodipodi:namedview
     pagecolor="#ffffff"
     bordercolor="#666666"
     borderopacity="1"
     objecttolerance="10"
     gridtolerance="10"
     guidetolerance="10"
     inkscape:pageopacity="0"
     inkscape:pageshadow="2"
     inkscape:window-width="1440"
     inkscape:window-height="806"
     id="namedview59"
     showgrid="false"
     inkscape:zoom="12.74"
     inkscape:cx="304.14954"
     inkscape:cy="419.39449"
     inkscape:window-x="0"
     inkscape:window-y="0"
     inkscape:window-maximized="1"
     inkscape:current-layer="_x30_" /><g
     id="g3"
     transform="matrix(1.1620255,0,0,1.1620255,-46.038948,-70.392723)"><g
       id="LINE"><path
         style="fill:none;stroke:#000000;stroke-width:0.7087;stroke-linecap:round;stroke-linejoin:round;stroke-miterlimit:10"
         d="m 286.89999,434.10001 23.10001,0"
         id="line6"
         inkscape:connector-curvature="0" /></g><g
       id="ARC"><path
         stroke-miterlimit="10"
         d="m 310.3,428.2 c 4.1,-6.5 2.2,-15.2 -4.3,-19.3 -6.5,-4.1 -15.2,-2.2 -19.3,4.3 -3.1,4.9 -2.9,11.2 0.5,15.8"
         id="path9"
         inkscape:connector-curvature="0"
         style="fill:none;stroke:#000000;stroke-width:0.7087;stroke-linecap:round;stroke-linejoin:round;stroke-miterlimit:10" /></g><g
       id="SPLINE_1_"><path
         stroke-miterlimit="10"
         d="m 287.2,429 c 0.2,0.2 0.3,0.5 0.5,0.9"
         id="path12"
         inkscape:connector-curvature="0"
         style="fill:none;stroke:#000000;stroke-width:0.7087;stroke-linecap:round;stroke-linejoin:round;stroke-miterlimit:10" /></g><g
       id="SPLINE_2_"><path
         style="fill:none;stroke:#000000;stroke-width:0.7087;stroke-linecap:round;stroke-linejoin:round;stroke-miterlimit:10"
         d="m 287.7,429.8 0,0.1 0.1,0.2 0,0.1 0.1,0.1 0,0.2 0,0.1 0.1,0.2 0,0 0,0.1"
         id="polyline15"
         inkscape:connector-curvature="0" /></g><g
       id="SPLINE_3_"><path
         stroke-miterlimit="10"
         d="m 288,430.9 c 0,0 0,0.1 0,0 0,0.2 0,0.3 0,0.4"
         id="path18"
         inkscape:connector-curvature="0"
         style="fill:none;stroke:#000000;stroke-width:0.7087;stroke-linecap:round;stroke-linejoin:round;stroke-miterlimit:10" /></g><g
       id="SPLINE_4_"><path
         style="fill:none;stroke:#000000;stroke-width:0.7087;stroke-linecap:round;stroke-linejoin:round;stroke-miterlimit:10"
         d="m 288,431.3 0,0.1 0,0.2 0,0.2 0,0.2 -0.1,0.2 0,0.2 -0.1,0.1 0,0.1 0,0.1"
         id="polyline21"
         inkscape:connector-curvature="0" /></g><g
       id="SPLINE_5_"><path
         stroke-miterlimit="10"
         d="m 287.8,432.7 c 0,0 0,0.1 0,0 0,0.1 0,0.1 0,0"
         id="path24"
         inkscape:connector-curvature="0"
         style="fill:none;stroke:#000000;stroke-width:0.7087;stroke-linecap:round;stroke-linejoin:round;stroke-miterlimit:10" /></g><g
       id="SPLINE_6_"><path
         style="fill:none;stroke:#000000;stroke-width:0.7087;stroke-linecap:round;stroke-linejoin:round;stroke-miterlimit:10"
         d="m 287.8,432.8 -0.1,0.1 0,0.1 0,0 0,0.1 -0.1,0 0,0.1 0,0 0,0.1 0,0 -0.1,0 0,0.1 0,0 -0.1,0.1 0,0"
         id="polyline27"
         inkscape:connector-curvature="0" /></g><g
       id="SPLINE_7_"><path
         stroke-miterlimit="10"
         d="m 287.4,433.5 c -0.1,0.2 -0.3,0.4 -0.4,0.6 l 0,0"
         id="path30"
         inkscape:connector-curvature="0"
         style="fill:none;stroke:#000000;stroke-width:0.7087;stroke-linecap:round;stroke-linejoin:round;stroke-miterlimit:10" /></g><g
       id="LINE_1_"><path
         style="fill:none;stroke:#000000;stroke-width:0.7087;stroke-linecap:round;stroke-linejoin:round;stroke-miterlimit:10"
         d="m 310.10001,434.10001 -23.10001,0"
         id="line33"
         inkscape:connector-curvature="0" /></g><g
       id="SPLINE_14_"><path
         stroke-miterlimit="10"
         d="m 309.8,429 c -0.2,0.2 -0.3,0.5 -0.5,0.9"
         id="path36"
         inkscape:connector-curvature="0"
         style="fill:none;stroke:#000000;stroke-width:0.7087;stroke-linecap:round;stroke-linejoin:round;stroke-miterlimit:10" /></g><g
       id="SPLINE_13_"><path
         style="fill:none;stroke:#000000;stroke-width:0.7087;stroke-linecap:round;stroke-linejoin:round;stroke-miterlimit:10"
         d="m 309.3,429.8 0,0.1 -0.1,0.2 0,0.1 -0.1,0.1 0,0.2 0,0.1 -0.1,0.2 0,0 0,0.1"
         id="polyline39"
         inkscape:connector-curvature="0" /></g><g
       id="SPLINE_12_"><path
         stroke-miterlimit="10"
         d="m 309,430.9 c 0,0 0,0.1 0,0 0,0.2 0,0.3 0,0.4"
         id="path42"
         inkscape:connector-curvature="0"
         style="fill:none;stroke:#000000;stroke-width:0.7087;stroke-linecap:round;stroke-linejoin:round;stroke-miterlimit:10" /></g><g
       id="SPLINE_11_"><path
         style="fill:none;stroke:#000000;stroke-width:0.7087;stroke-linecap:round;stroke-linejoin:round;stroke-miterlimit:10"
         d="m 309,431.3 0,0.1 0,0.2 0,0.2 0,0.2 0.1,0.2 0,0.2 0.1,0.1 0,0.1 0,0.1"
         id="polyline45"
         inkscape:connector-curvature="0" /></g><g
       id="SPLINE_10_"><path
         stroke-miterlimit="10"
         d="m 309.2,432.7 c 0,0 0,0.1 0,0 0,0.1 0,0.1 0,0"
         id="path48"
         inkscape:connector-curvature="0"
         style="fill:none;stroke:#000000;stroke-width:0.7087;stroke-linecap:round;stroke-linejoin:round;stroke-miterlimit:10" /></g><g
       id="SPLINE_9_"><path
         style="fill:none;stroke:#000000;stroke-width:0.7087;stroke-linecap:round;stroke-linejoin:round;stroke-miterlimit:10"
         d="m 309.2,432.8 0.1,0.1 0,0.1 0,0 0,0.1 0.1,0 0,0.1 0,0 0,0.1 0,0 0.1,0 0,0.1 0,0 0.1,0.1 0,0"
         id="polyline51"
         inkscape:connector-curvature="0" /></g><g
       id="SPLINE_8_"><path
         stroke-miterlimit="10"
         d="m 309.6,433.5 c 0.1,0.2 0.3,0.4 0.4,0.6 l 0,0"
         id="path54"
         inkscape:connector-curvature="0"
         style="fill:none;stroke:#000000;stroke-width:0.7087;stroke-linecap:round;stroke-linejoin:round;stroke-miterlimit:10" /></g><g
       id="SPLINE_15_"><path
         stroke-miterlimit="10"
         d="m 309.7,429.2 c 0.2,-0.4 0.3,-0.7 0.5,-0.9"
         id="path57"
         inkscape:connector-curvature="0"
         style="fill:none;stroke:#000000;stroke-width:0.7087;stroke-linecap:round;stroke-linejoin:round;stroke-miterlimit:10" /></g></g></svg>