<?xml version="1.0" encoding="utf-8"?>
<!-- Generator: Adobe Illustrator 18.1.1, SVG Export Plug-In . SVG Version: 6.00 Build 0)  -->
<svg version="1.1" id="_x30_" xmlns="http://www.w3.org/2000/svg" xmlns:xlink="http://www.w3.org/1999/xlink" x="0px" y="0px"
	 viewBox="0 0 595.3 841.9" enable-background="new 0 0 595.3 841.9" xml:space="preserve">
<g>
	<g id="LINE">
		
			<line fill="none" stroke="#000000" stroke-width="0.7087" stroke-linecap="round" stroke-linejoin="round" stroke-miterlimit="10" x1="286.9" y1="434.1" x2="310" y2="434.1"/>
	</g>
	<g id="ARC">
		
			<path fill="none" stroke="#000000" stroke-width="0.7087" stroke-linecap="round" stroke-linejoin="round" stroke-miterlimit="10" d="
			M310.3,428.2c4.1-6.5,2.2-15.2-4.3-19.3c-6.5-4.1-15.2-2.2-19.3,4.3c-3.1,4.9-2.9,11.2,0.5,15.8"/>
	</g>
	<g id="SPLINE_1_">
		
			<path fill="none" stroke="#000000" stroke-width="0.7087" stroke-linecap="round" stroke-linejoin="round" stroke-miterlimit="10" d="
			M287.2,429c0.2,0.2,0.3,0.5,0.5,0.9"/>
	</g>
	<g id="SPLINE_2_">
		
			<polyline fill="none" stroke="#000000" stroke-width="0.7087" stroke-linecap="round" stroke-linejoin="round" stroke-miterlimit="10" points="
			287.7,429.8 287.7,429.9 287.8,430.1 287.8,430.2 287.9,430.3 287.9,430.5 287.9,430.6 288,430.8 288,430.8 288,430.9 		"/>
	</g>
	<g id="SPLINE_3_">
		
			<path fill="none" stroke="#000000" stroke-width="0.7087" stroke-linecap="round" stroke-linejoin="round" stroke-miterlimit="10" d="
			M288,430.9C288,430.9,288,431,288,430.9c0,0.2,0,0.3,0,0.4"/>
	</g>
	<g id="SPLINE_4_">
		
			<polyline fill="none" stroke="#000000" stroke-width="0.7087" stroke-linecap="round" stroke-linejoin="round" stroke-miterlimit="10" points="
			288,431.3 288,431.4 288,431.6 288,431.8 288,432 287.9,432.2 287.9,432.4 287.8,432.5 287.8,432.6 287.8,432.7 		"/>
	</g>
	<g id="SPLINE_5_">
		
			<path fill="none" stroke="#000000" stroke-width="0.7087" stroke-linecap="round" stroke-linejoin="round" stroke-miterlimit="10" d="
			M287.8,432.7C287.8,432.7,287.8,432.8,287.8,432.7C287.8,432.8,287.8,432.8,287.8,432.7"/>
	</g>
	<g id="SPLINE_6_">
		
			<polyline fill="none" stroke="#000000" stroke-width="0.7087" stroke-linecap="round" stroke-linejoin="round" stroke-miterlimit="10" points="
			287.8,432.8 287.7,432.9 287.7,433 287.7,433 287.7,433.1 287.6,433.1 287.6,433.2 287.6,433.2 287.6,433.3 287.6,433.3 
			287.5,433.3 287.5,433.4 287.5,433.4 287.4,433.5 287.4,433.5 		"/>
	</g>
	<g id="SPLINE_7_">
		
			<path fill="none" stroke="#000000" stroke-width="0.7087" stroke-linecap="round" stroke-linejoin="round" stroke-miterlimit="10" d="
			M287.4,433.5c-0.1,0.2-0.3,0.4-0.4,0.6l0,0"/>
	</g>
	<g id="LINE_1_">
		
			<line fill="none" stroke="#000000" stroke-width="0.7087" stroke-linecap="round" stroke-linejoin="round" stroke-miterlimit="10" x1="310.1" y1="434.1" x2="287" y2="434.1"/>
	</g>
	<g id="SPLINE_14_">
		
			<path fill="none" stroke="#000000" stroke-width="0.7087" stroke-linecap="round" stroke-linejoin="round" stroke-miterlimit="10" d="
			M309.8,429c-0.2,0.2-0.3,0.5-0.5,0.9"/>
	</g>
	<g id="SPLINE_13_">
		
			<polyline fill="none" stroke="#000000" stroke-width="0.7087" stroke-linecap="round" stroke-linejoin="round" stroke-miterlimit="10" points="
			309.3,429.8 309.3,429.9 309.2,430.1 309.2,430.2 309.1,430.3 309.1,430.5 309.1,430.6 309,430.8 309,430.8 309,430.9 		"/>
	</g>
	<g id="SPLINE_12_">
		
			<path fill="none" stroke="#000000" stroke-width="0.7087" stroke-linecap="round" stroke-linejoin="round" stroke-miterlimit="10" d="
			M309,430.9C309,430.9,309,431,309,430.9c0,0.2,0,0.3,0,0.4"/>
	</g>
	<g id="SPLINE_11_">
		
			<polyline fill="none" stroke="#000000" stroke-width="0.7087" stroke-linecap="round" stroke-linejoin="round" stroke-miterlimit="10" points="
			309,431.3 309,431.4 309,431.6 309,431.8 309,432 309.1,432.2 309.1,432.4 309.2,432.5 309.2,432.6 309.2,432.7 		"/>
	</g>
	<g id="SPLINE_10_">
		
			<path fill="none" stroke="#000000" stroke-width="0.7087" stroke-linecap="round" stroke-linejoin="round" stroke-miterlimit="10" d="
			M309.2,432.7C309.2,432.7,309.2,432.8,309.2,432.7C309.2,432.8,309.2,432.8,309.2,432.7"/>
	</g>
	<g id="SPLINE_9_">
		
			<polyline fill="none" stroke="#000000" stroke-width="0.7087" stroke-linecap="round" stroke-linejoin="round" stroke-miterlimit="10" points="
			309.2,432.8 309.3,432.9 309.3,433 309.3,433 309.3,433.1 309.4,433.1 309.4,433.2 309.4,433.2 309.4,433.3 309.4,433.3 
			309.5,433.3 309.5,433.4 309.5,433.4 309.6,433.5 309.6,433.5 		"/>
	</g>
	<g id="SPLINE_8_">
		
			<path fill="none" stroke="#000000" stroke-width="0.7087" stroke-linecap="round" stroke-linejoin="round" stroke-miterlimit="10" d="
			M309.6,433.5c0.1,0.2,0.3,0.4,0.4,0.6l0,0"/>
	</g>
	<g id="SPLINE_15_">
		
			<path fill="none" stroke="#000000" stroke-width="0.7087" stroke-linecap="round" stroke-linejoin="round" stroke-miterlimit="10" d="
			M309.7,429.2c0.2-0.4,0.3-0.7,0.5-0.9"/>
	</g>
</g>
</svg>
