<?xml version="1.0" encoding="utf-8"?>
<!-- Generator: Adobe Illustrator 18.1.1, SVG Export Plug-In . SVG Version: 6.00 Build 0)  -->
<svg version="1.1" xmlns="http://www.w3.org/2000/svg" xmlns:xlink="http://www.w3.org/1999/xlink" x="0px" y="0px"
	 viewBox="0 0 595.3 841.9" enable-background="new 0 0 595.3 841.9" xml:space="preserve">
<g id="svg2" xmlns:svg="http://www.w3.org/2000/svg" xmlns:dc="http://purl.org/dc/elements/1.1/" xmlns:inkscape="http://www.inkscape.org/namespaces/inkscape" xmlns:cc="http://creativecommons.org/ns#" xmlns:rdf="http://www.w3.org/1999/02/22-rdf-syntax-ns#" xmlns:sodipodi="http://sodipodi.sourceforge.net/DTD/sodipodi-0.dtd" sodipodi:docname="parts drawing-1.svg" inkscape:version="0.91 r13725">
	
		<sodipodi:namedview  inkscape:zoom="5.6" bordercolor="#666666" showgrid="false" inkscape:cy="943.89177" id="base" inkscape:cx="265.52989" borderopacity="1.0" pagecolor="#ffffff" inkscape:window-maximized="0" inkscape:window-width="1440" inkscape:window-height="855" inkscape:pageshadow="2" inkscape:window-x="76" inkscape:pageopacity="0.0" inkscape:window-y="0" inkscape:current-layer="layer1" inkscape:document-units="px">
		</sodipodi:namedview>
	<g id="layer1" inkscape:groupmode="layer" inkscape:label="Layer 1">
		<g id="g3022" transform="translate(604.95751,-1037.5205)" inkscape:label="0">
			<path id="path3024" inkscape:connector-curvature="0" fill="none" stroke="#000000" d="M-296.1,1130.1v-7.8h4.6v7.8
				C-291.6,1130.1-296.1,1130.1-296.1,1130.1z"/>
		</g>
		<g id="g3077" transform="translate(418.42558,-865.98115)" inkscape:label="0">
			<path id="path3079" inkscape:connector-curvature="0" fill="none" stroke="#000000" d="M-102.7,996h-41.8v-6.9h41.9L-102.7,996
				L-102.7,996z"/>
		</g>
		<path id="path3134" inkscape:connector-curvature="0" fill="none" stroke="#000000" d="M144,149c2.1,0,3.8-1.7,3.8-3.8
			s-1.7-3.8-3.8-3.8l0,0c-2.1,0-3.8,1.7-3.8,3.8S141.9,149,144,149L144,149z"/>
		<path id="path3144" inkscape:connector-curvature="0" fill="none" stroke="#000000" d="M144,170.7c2.1,0,3.8-1.7,3.8-3.8
			s-1.7-3.8-3.8-3.8l0,0c-2.1,0-3.8,1.7-3.8,3.8S141.9,170.7,144,170.7z"/>
		<path id="path3150_1_" inkscape:connector-curvature="0" fill="none" stroke="#000000" d="M114,156.4v-18.1h35.4
			c3.4,11.5,3.5,23.8,0.2,35.4h-35.8l0.1-35.4h35.4c1.8,5.8,2.7,11.9,2.6,18v-0.2"/>
		<g id="g3360" transform="translate(117.38282,-895.22554)" inkscape:label="0">
			<path id="path3362" inkscape:connector-curvature="0" fill="none" stroke="#000000" d="M21.9,951.7H-2.6v-24.4h24.5V951.7z"/>
		</g>
		<g id="g3703" transform="translate(298.75745,-952.72704)" inkscape:label="0">
			<path id="path3713" inkscape:connector-curvature="0" fill="none" stroke="#000000" d="M131.6,1002.2c0.1,0,0.6,0,1-0.1
				c0.2-0.1,0.5-0.2,0.8-0.3c0.3-0.2,0.6-0.4,0.7-0.7c0.2-0.2,0.2-0.4,0.4-0.7c0.1-0.2,0.1-0.6,0.1-0.8c-0.2-0.5-0.3-0.8-0.6-1
				c-0.2-0.3-0.5-0.6-0.6-0.6c0,0-0.1-0.1-0.2-0.1l0,0c-0.5-0.3-2.6-1-4.6-1.4c-2.7-0.6-4.6-0.8-6.7-0.8c-5,0.1-7.8,1.2-10.5,2.2
				c-0.1,0-0.5,0.3-0.8,0.6c-0.2,0.2-0.3,0.3-0.5,0.6c-0.1,0.2-0.2,0.5-0.2,0.8c0,0.2,0,0.6,0.1,0.8c0.1,0.3,0.2,0.6,0.4,0.8
				c0.2,0.2,0.4,0.4,0.7,0.6c0.4,0.2,0.8,0.3,1.3,0.4C112.5,1002.2,131.6,1002.2,131.6,1002.2z"/>
			<path id="path3717" inkscape:connector-curvature="0" fill="none" stroke="#000000" d="M56.2,1002.2c-1.3-0.2-2.2-1.4-1.9-2.6
				c0.2-1,1-1.8,1.9-1.9h3c1.3,0.3,2.1,1.6,1.8,2.9c-0.2,0.9-0.9,1.5-1.8,1.8L56.2,1002.2L56.2,1002.2z"/>
		</g>
		<g id="g4253" transform="translate(568.63227,-1037.5205)" inkscape:label="0">
			<path id="path4255" inkscape:connector-curvature="0" fill="none" stroke="#000000" d="M-259.8,1089.8v-7.8h4.6v7.8
				C-255.3,1089.8-259.8,1089.8-259.8,1089.8z"/>
		</g>
		<g id="g4308" transform="translate(418.27763,-842.9612)" inkscape:label="0">
			<path id="path4310" inkscape:connector-curvature="0" fill="none" stroke="#000000" d="M-102.7,991.4h-41.8v-6.9h41.9
				L-102.7,991.4L-102.7,991.4z"/>
		</g>
		<g id="g4363" transform="translate(496.69498,-864.97098)" inkscape:label="0">
			<path id="path4365" inkscape:connector-curvature="0" fill="none" stroke="#000000" d="M-43.5,953.4h-41.8v-6.9h41.9L-43.5,953.4
				L-43.5,953.4z"/>
		</g>
		<g id="g4418" transform="translate(496.04196,-842.45613)" inkscape:label="0">
			<path id="path4420" inkscape:connector-curvature="0" fill="none" stroke="#000000" d="M-43.4,948.9h-41.8V942h41.9L-43.4,948.9
				L-43.4,948.9z"/>
		</g>
		<g id="g4473" transform="translate(288.01273,-924.96823)" inkscape:label="0">
			<path id="path4475" inkscape:connector-curvature="0" fill="none" stroke="#000000" d="M-10.1,1001h28.9"/>
			<path id="path4477" inkscape:connector-curvature="0" fill="none" stroke="#000000" d="M18.8,1001v-17.2"/>
			<path id="path4479" inkscape:connector-curvature="0" fill="none" stroke="#000000" d="M18.8,983.8h-1.4"/>
			<path id="path4483" inkscape:connector-curvature="0" fill="none" stroke="#000000" d="M11.8,967.3v-2"/>
			<path id="path4485" inkscape:connector-curvature="0" fill="none" stroke="#000000" d="M11.8,965.3H-2.3"/>
			<path id="path4487" inkscape:connector-curvature="0" fill="none" stroke="#000000" d="M-2.3,965.3v18.6"/>
			<path id="path4489" inkscape:connector-curvature="0" fill="none" stroke="#000000" d="M-2.3,983.8h-7.8"/>
			<path id="path4491" inkscape:connector-curvature="0" fill="none" stroke="#000000" d="M-10.1,983.8v17.2"/>
		</g>
		<path id="path4564" inkscape:connector-curvature="0" fill="none" stroke="#000000" d="M152.1,23.8v0.8h35.5v-0.8
			c-1.6-0.8-2.8-2.2-3.5-4h-24.4h0.1C157.8,21.4,155.3,22.8,152.1,23.8"/>
		<path id="path4769" inkscape:connector-curvature="0" fill="none" stroke="#000000" d="M220.7,28.1c0,0-1.8,0-1.8,0v-2
			c0,0-2.8,0-2.8,0c-0.5,0.3-1,0.7-1.7,1.1l-6.8,0.2l1.6-0.1c3.8-1.2,5.8-2.6,7.7-4.1l70.6,0h-1.1c2.4,1.8,5.1,3.1,8.4,4h-5.1
			c-0.5-0.2-1.2-0.6-2-1.1h-2.5c0,0,0,2,0,2s-1.8,0-1.8,0v-2h-19.8c0,0,0,2,0,2s-1.7,0-1.7,0v-2h-19.8c0,0,0,2,0,2s-1.7,0-1.7,0v-2
			h-19.8V28.1z"/>
		<g id="g5211" transform="translate(267.63035,-810.17494)" inkscape:label="0">
			<g>
				<path id="path5225_2_" inkscape:connector-curvature="0" fill="none" stroke="#000000" d="M-47.3,1011.6"/>
			</g>
			<path id="path5227_1_" inkscape:connector-curvature="0" fill="none" stroke="#000000" d="M-47.3,1012.4"/>
		</g>
		<g id="g5962" transform="translate(571.77851,-997.07596)" inkscape:label="0">
			<path id="path5964" inkscape:connector-curvature="0" fill="none" stroke="#000000" d="M-164.8,1072.8h-39v-16.5h39
				C-164.8,1056.3-164.8,1072.8-164.8,1072.8z"/>
		</g>
		<g id="g6017" transform="matrix(-1,0,0,-1,184.36024,1013.6128)" inkscape:label="0">
			<path id="path6019" inkscape:connector-curvature="0" fill="none" stroke="#000000" d="M45.1,986.3h24.5v9.3H45.1V986.3z"/>
		</g>
		<g id="g6072" transform="translate(63.170356,-897.3205)" inkscape:label="0">
			<path id="path6074" inkscape:connector-curvature="0" fill="none" stroke="#000000" d="M38.2,1044.6v-67.1H2.8v67.1H38.2z"/>
			<path id="path6076" inkscape:connector-curvature="0" fill="none" stroke="#000000" d="M41.5,1070.4H-0.5v-155h41.9V1070.4z"/>
		</g>
		<g id="g6130" transform="translate(551.08887,-932.04825)" inkscape:label="0">
			<path id="path6132" inkscape:connector-curvature="0" fill="none" stroke="#000000" d="M-99.8,996.6h-15.5v-5.8h15.5V996.6z"/>
		</g>
		<g id="g6185" transform="translate(521.79444,-932.04825)" inkscape:label="0">
			<path id="path6187" inkscape:connector-curvature="0" fill="none" stroke="#000000" d="M-93.9,996.6h-15.5v-5.8h15.5V996.6z"/>
		</g>
		<g id="g6240" transform="matrix(0,1,-1,0,1146.2175,80.579238)" inkscape:label="0">
			<path id="path6242" inkscape:connector-curvature="0" fill="none" stroke="#000000" d="M-24.1,1003.5h-24.5v-5.1h24.5V1003.5z"/>
		</g>
		<g id="g6295" transform="matrix(0,1,-1,0,1375.2774,248.80667)" inkscape:label="0">
			<path id="path6297" inkscape:connector-curvature="0" fill="none" stroke="#000000" d="M-121.2,1106.3h5.4v55.7h-5.4V1106.3z"/>
		</g>
		<path id="path6352" inkscape:connector-curvature="0" fill="none" stroke="#000000" d="M272,113.7v5.4h-55.7v-5.4H272z"/>
		<g id="g6405" transform="translate(571.19912,-789.82152)" inkscape:label="0">
			<path id="path6407" inkscape:connector-curvature="0" fill="none" stroke="#000000" d="M-191.3,879.6v5.4h11.3v-5.5
				C-183.4,877.3-187.9,877.3-191.3,879.6L-191.3,879.6z"/>
			<path id="path6409" inkscape:connector-curvature="0" fill="none" stroke="#000000" d="M-167.9,895.8h-35.4v-23.3h35.4
				L-167.9,895.8L-167.9,895.8z"/>
		</g>
		<path id="path6475_2_" inkscape:connector-curvature="0" fill="none" stroke="#000000" d="M319.3,76.8c0,0,43.4,0,43.4,0
			c-4.8,2.3-3.8,4.8-4,5.6v0v24"/>
		<path id="path6475_6_" inkscape:connector-curvature="0" fill="none" stroke="#000000" d="M323.2,81.5"/>
		<path id="path6475_3_" inkscape:connector-curvature="0" fill="none" stroke="#000000" d="M358.6,106.4h-35.4v0.1"/>
		<g id="g6533" transform="translate(638.97512,-1092.5333)" inkscape:label="0">
			<path id="path6535" inkscape:connector-curvature="0" fill="none" stroke="#000000" d="M-172.4,1159.1v101.4h28.3v-101.4H-172.4z
				"/>
			<path id="path6537" inkscape:connector-curvature="0" fill="none" stroke="#000000" d="M-179.2,1148.3h41.9v116.4h-41.9V1148.3z"
				/>
		</g>
	</g>
	<g id="g4931_1_" transform="translate(225.48698,-874.52242)" inkscape:label="0">
		<path id="path4933_1_" inkscape:connector-curvature="0" fill="none" stroke="#000000" d="M88.5,1077.2L88.5,1077.2"/>
		<path id="path4935_1_" inkscape:connector-curvature="0" fill="none" stroke="#000000" d="M88.5,1077.2v0.3"/>
		<path id="path4937_3_" inkscape:connector-curvature="0" fill="none" stroke="#000000" d="M-66.5,1077.5"/>
		<path id="path4937_2_" inkscape:connector-curvature="0" fill="none" stroke="#000000" d="M88.5,1077.5"/>
		<path id="path4941_1_" inkscape:connector-curvature="0" fill="none" stroke="#000000" d="M-66.5,1076.9L-66.5,1076.9"/>
		<path id="path4943_1_" inkscape:connector-curvature="0" fill="none" stroke="#000000" d="M-66.6,1075.9l0,7.9"/>
		<path id="path4945_1_" inkscape:connector-curvature="0" fill="none" stroke="#000000" d="M-66.6,1083.8h2.1"/>
		<path id="path4947_1_" inkscape:connector-curvature="0" fill="none" stroke="#000000" d="M-64.8,1083.8c0.6-0.1,1.3-0.2,1.6-0.5"
			/>
		<path id="path4949_1_" inkscape:connector-curvature="0" fill="none" stroke="#000000" d="M-63.1,1083.3c0.8-0.6,1.5-0.8,2.2-0.8"
			/>
		<path id="path4951_1_" inkscape:connector-curvature="0" fill="none" stroke="#000000" d="M-61.2,1082.5l72.8,0"/>
		<path id="path4953_1_" inkscape:connector-curvature="0" fill="none" stroke="#000000" d="M11.3,1082.5c2.2,0.6,2.4,2.1,2.8,2.6"
			/>
		<path id="path4955_3_" inkscape:connector-curvature="0" fill="none" stroke="#000000" d="M13.8,1084.5"/>
		<path id="path4955_2_" inkscape:connector-curvature="0" fill="none" stroke="#000000" d="M13.4,1083.5"/>
		<path id="path4957_3_" inkscape:connector-curvature="0" fill="none" stroke="#000000" d="M13.7,1085.1"/>
		<path id="path4957_2_" inkscape:connector-curvature="0" fill="none" stroke="#000000" d="M13.7,1084.5"/>
		<path id="path4959_1_" inkscape:connector-curvature="0" fill="none" stroke="#000000" d="M13.7,1085.1h10.8"/>
		<path id="path4961_1_" inkscape:connector-curvature="0" fill="none" stroke="#000000" d="M24.5,1085.3v-1.6"/>
		<path id="path4963_1_" inkscape:connector-curvature="0" fill="none" stroke="#000000" d="M24.5,1083.9c0.1-0.3,0.3-0.6,0.7-1"/>
		<path id="path4965_1_" inkscape:connector-curvature="0" fill="none" stroke="#000000" d="M25.3,1082.9c0.4-0.3,1-0.5,1.5-0.5"/>
		<path id="path4967_1_" inkscape:connector-curvature="0" fill="none" stroke="#000000" d="M26.8,1082.4h27"/>
		<path id="path4969_1_" inkscape:connector-curvature="0" fill="none" stroke="#000000" d="M53.8,1082.4c1,0.1,1.9,0.4,2.7,0.9"/>
		<path id="path4971_1_" inkscape:connector-curvature="0" fill="none" stroke="#000000" d="M56.5,1083.3c1,0.7,2.9,3.6,5.7,8.4"/>
		<path id="path4973_1_" inkscape:connector-curvature="0" fill="none" stroke="#000000" d="M62.2,1091.6v1.3"/>
		<path id="path4975_1_" inkscape:connector-curvature="0" fill="none" stroke="#000000" d="M62.2,1092.8h11.5"/>
		<path id="path4977_1_" inkscape:connector-curvature="0" fill="none" stroke="#000000" d="M73.7,1092.8v-1.3"/>
		<path id="path4979_1_" inkscape:connector-curvature="0" fill="none" stroke="#000000" d="M73.7,1091.7c1.3-1.9,3.4-4.1,5.3-5.8"
			/>
		<path id="path4981_1_" inkscape:connector-curvature="0" fill="none" stroke="#000000" d="M78.6,1086.2c0.8-0.6,1.5-0.8,2.2-0.8"
			/>
		<path id="path4983_1_" inkscape:connector-curvature="0" fill="none" stroke="#000000" d="M80.9,1085.4c0.5,0.7,0.8,1.7,1,2.9"/>
		<path id="path4985_1_" inkscape:connector-curvature="0" fill="none" stroke="#000000" d="M81.7,1087.8l0,5.1"/>
		<path id="path4987_1_" inkscape:connector-curvature="0" fill="none" stroke="#000000" d="M81.7,1092.8h5.7"/>
		<path id="path4989_1_" inkscape:connector-curvature="0" fill="none" stroke="#000000" d="M87.3,1092.8v-8.4"/>
		<path id="path4991_1_" inkscape:connector-curvature="0" fill="none" stroke="#000000" d="M87.3,1084.7c0.2-0.3,0.6-0.9,1.2-1.1"
			/>
		<path id="path4993_1_" inkscape:connector-curvature="0" fill="none" stroke="#000000" d="M88.5,1083.6l0-7.7"/>
	</g>
	<path id="path3713_1_" inkscape:connector-curvature="0" fill="none" stroke="#000000" d="M394.2,49.3h-19.5h0.2
		c-0.5-0.1-0.9-0.2-1.3-0.4c-0.3-0.2-0.6-0.4-0.7-0.6c-0.2-0.2-0.3-0.5-0.4-0.8c-0.1-0.2-0.1-0.6-0.1-0.8c0-0.3,0.1-0.6,0.2-0.8
		c0.1-0.2,0.2-0.4,0.5-0.6c0.3-0.2,0.7-0.6,0.8-0.6c2.6-1,5.5-2.1,10.5-2.2c2.1-0.1,4,0.2,6.7,0.8c1.9,0.5,4.1,1.1,4.6,1.4l-0.2-0.1
		c0,0,0.2,0.1,0.2,0.1s0.1,0.1,0.2,0.1c0.2,0.1,0.4,0.3,0.6,0.6c0.2,0.2,0.4,0.7,0.6,1.2v-0.2c0,0.3,0,0.6-0.1,0.8
		c-0.1,0.3-0.2,0.6-0.4,0.7c-0.2,0.2-0.4,0.5-0.7,0.7c-0.2,0.2-0.6,0.2-0.8,0.3c-0.5,0.1-1,0.1-1,0.1L394.2,49.3z"/>
	<path fill="none" stroke="#000000" d="M459.8,43.2c-8.5,0-15.4,3.9-15.4,8.8H358c-0.6,0.2-1,0.5-1.3,1h-11v-7.7
		c-0.3-0.9-0.9-1.4-1.8-1.8v-6.7h115.8C459.8,36.8,459.8,43.2,459.8,43.2z"/>
	<path fill="none" stroke="#000000" d="M299.8,42.1c-5.7,10.3,2.5,16.6,5.5,16.6"/>
	<line fill="none" stroke="#000000" x1="158.9" y1="201.4" x2="218.5" y2="201.3"/>
	<line fill="none" stroke="#000000" x1="270.8" y1="201.3" x2="313.9" y2="201.3"/>
	<g id="g3703_1_" transform="translate(298.75745,-952.72704)" inkscape:label="0">
		<path id="path3713_3_" inkscape:connector-curvature="0" fill="none" stroke="#000000" d="M105.3,1167.7c0.1,0,0.6,0,1-0.1
			c0.2-0.1,0.5-0.2,0.8-0.3c0.3-0.2,0.6-0.4,0.7-0.7c0.2-0.2,0.2-0.4,0.4-0.7c0.1-0.2,0.1-0.6,0.1-0.8c-0.2-0.5-0.3-0.8-0.6-1
			c-0.2-0.3-0.5-0.6-0.6-0.6c0,0-0.1-0.1-0.2-0.1l0,0c-0.5-0.3-2.6-1-4.6-1.4c-2.7-0.6-4.6-0.8-6.7-0.8c-5,0.1-7.8,1.2-10.5,2.2
			c-0.1,0-0.5,0.3-0.8,0.6c-0.2,0.2-0.3,0.3-0.5,0.6c-0.1,0.2-0.2,0.5-0.2,0.8c0,0.2,0,0.6,0.1,0.8c0.1,0.3,0.2,0.6,0.4,0.8
			c0.2,0.2,0.4,0.4,0.7,0.6c0.4,0.2,0.8,0.3,1.3,0.4C86.1,1167.7,105.3,1167.7,105.3,1167.7z"/>
		<path id="path3717_1_" inkscape:connector-curvature="0" fill="none" stroke="#000000" d="M29.8,1167.7c-1.3-0.2-2.2-1.4-1.9-2.6
			c0.2-1,1-1.8,1.9-1.9h3c1.3,0.3,2.1,1.6,1.8,2.9c-0.2,0.9-0.9,1.5-1.8,1.8L29.8,1167.7L29.8,1167.7z"/>
	</g>
	<path id="path3713_2_" inkscape:connector-curvature="0" fill="none" stroke="#000000" d="M367.8,214.8h-19.5h0.2
		c-0.5-0.1-0.9-0.2-1.3-0.4c-0.3-0.2-0.6-0.4-0.7-0.6c-0.2-0.2-0.3-0.5-0.4-0.8c-0.1-0.2-0.1-0.6-0.1-0.8c0-0.3,0.1-0.6,0.2-0.8
		c0.1-0.2,0.2-0.4,0.5-0.6c0.3-0.2,0.7-0.6,0.8-0.6c2.6-1,5.5-2.1,10.5-2.2c2.1-0.1,4,0.2,6.7,0.8c1.9,0.5,4.1,1.1,4.6,1.4l-0.2-0.1
		c0,0,0.2,0.1,0.2,0.1s0.1,0.1,0.2,0.1c0.2,0.1,0.4,0.3,0.6,0.6c0.2,0.2,0.4,0.7,0.6,1.2v-0.2c0,0.3,0,0.6-0.1,0.8
		c-0.1,0.3-0.2,0.6-0.4,0.7c-0.2,0.2-0.4,0.5-0.7,0.7c-0.2,0.2-0.6,0.2-0.8,0.3c-0.5,0.1-1,0.1-1,0.1L367.8,214.8z"/>
	<path fill="none" stroke="#000000" d="M433.4,208.7c-8.5,0-15.4,3.9-15.4,8.8h-86.4c-0.6,0.2-1,0.5-1.3,1h-11v-7.7
		c-0.3-0.9-0.9-1.4-1.8-1.8v-7.7h115.8C433.4,201.4,433.4,208.7,433.4,208.7z"/>
	<path id="path4564_1_" inkscape:connector-curvature="0" fill="none" stroke="#000000" d="M152.1,33.6v0.8h35.5v-0.8
		c-1.6-0.8-2.8-2.2-3.5-4h-24.4h0.1C157.8,31.3,155.3,32.6,152.1,33.6L152.1,33.6z"/>
	<g id="g4473_1_" transform="translate(288.01273,-924.96823)" inkscape:label="0">
		<path id="path4475_1_" inkscape:connector-curvature="0" fill="none" stroke="#000000" d="M-8.1,1043h28.9"/>
		<path id="path4477_1_" inkscape:connector-curvature="0" fill="none" stroke="#000000" d="M20.8,1043v-17.2"/>
		<path id="path4479_1_" inkscape:connector-curvature="0" fill="none" stroke="#000000" d="M20.8,1025.8h-1.4"/>
		<path id="path4483_1_" inkscape:connector-curvature="0" fill="none" stroke="#000000" d="M13.8,1009.3v-2"/>
		<path id="path4485_1_" inkscape:connector-curvature="0" fill="none" stroke="#000000" d="M13.8,1007.3H-0.3"/>
		<path id="path4487_1_" inkscape:connector-curvature="0" fill="none" stroke="#000000" d="M-0.3,1007.3v18.6"/>
		<path id="path4489_1_" inkscape:connector-curvature="0" fill="none" stroke="#000000" d="M-0.3,1025.8h-7.8"/>
		<path id="path4491_1_" inkscape:connector-curvature="0" fill="none" stroke="#000000" d="M-8.1,1025.8v17.2"/>
	</g>
	<path fill="none" stroke="#000000" d="M301.8,84.1c-5.7,10.3,2.5,16.6,5.5,16.6"/>
	<path id="path4640_5_" inkscape:connector-curvature="0" fill="none" stroke="#000000" d="M434.6,114l-102.4,0.1h0.2
		c-4.2,0.3-7.4,1.8-9.6,4.6v-0.2v23.3l-0.4,0h107.5l-0.1,0.2v-21.7C429.4,116.3,433.6,114.6,434.6,114z"/>
	<path fill="none" stroke="#000000" d="M222.2,198.4c1.7-16,20.7-24.7,35.8-14.7c4.9,3.2,8.4,8.7,9.1,14.5"/>
	<path id="path5217_3_" inkscape:connector-curvature="0" fill="none" stroke="#000000" d="M219,201.4"/>
	<path id="path5217_2_" inkscape:connector-curvature="0" fill="none" stroke="#000000" d="M222.7,198.2"/>
	<path id="path4640_1_" inkscape:connector-curvature="0" fill="none" stroke="#000000" d="M434.6,145L332.2,145h0.2
		c-4.2,0.3-7.4,1.8-9.6,4.6v-0.2v23.3l-0.4,0h107.5l-0.1,0.2v-21.7C429.4,147.2,433.6,145.5,434.6,145z"/>
	<path id="path6475_5_" inkscape:connector-curvature="0" fill="none" stroke="#000000" d="M319.3,76.8"/>
	<path id="path6475_4_" inkscape:connector-curvature="0" fill="none" stroke="#000000" d="M323.2,82.3"/>
	<path id="path6475_7_" inkscape:connector-curvature="0" fill="none" stroke="#000000" d="M322.8,106.4v-24"/>
	<path id="path6475_1_" inkscape:connector-curvature="0" fill="none" stroke="#000000" d="M322.8,82.3c-0.2-0.8,0.8-3.3-4-5.6"/>
	<path id="path5217_7_" inkscape:connector-curvature="0" fill="none" stroke="#000000" d="M267,198.1"/>
	<path id="path5217_6_" inkscape:connector-curvature="0" fill="none" stroke="#000000" d="M270.8,201.3"/>
	<path id="path5217_5_" inkscape:connector-curvature="0" fill="none" stroke="#000000" d="M218.5,201.3"/>
	<path id="path5217_4_" inkscape:connector-curvature="0" fill="none" stroke="#000000" d="M222.2,198.1"/>
	<path id="path5217_1_" inkscape:connector-curvature="0" fill="none" stroke="#000000" d="M222.2,198.1c-0.5,2.5-3,3.2-3.7,3.3"/>
	<path id="path5217" inkscape:connector-curvature="0" fill="none" stroke="#000000" d="M270.8,201.3c-0.8-0.2-3.5-1-3.7-3.3"/>
</g>
<g id="Layer_2">
</g>
</svg>
