0
SECTION
2
HEADER
9
$ACADVER
1
AC1014
9
$HANDSEED
5
FFFF
0
ENDSEC
0
SECTION
2
TABLES
0
TABLE
2
VPORT
5
8
100
AcDbSymbolTable
0
ENDTAB
0
TABLE
2
LTYPE
5
5
100
AcDbSymbolTable
0
LTYPE
5
14
100
AcDbSymbolTableRecord
100
AcDbLinetypeTableRecord
2
BYBLOCK
70
0
0
LTYPE
5
15
100
AcDbSymbolTableRecord
100
AcDbLinetypeTableRecord
2
BYLAYER
70
0
0
ENDTAB
0
TABLE
2
LAYER
5
2
100
AcDbSymbolTable
70
2
0
LAYER
5
50
100
AcDbSymbolTableRecord
100
AcDbLayerTableRecord
2
0
70
0
6
CONTINUOUS
0
ENDTAB
0
TABLE
2
STYLE
5
3
100
AcDbSymbolTable
70
1
0
STYLE
5
11
100
AcDbSymbolTableRecord
100
AcDbTextStyleTableRecord
2
STANDARD
70
0
0
ENDTAB
0
TABLE
2
VIEW
5
6
100
AcDbSymbolTable
70
0
0
ENDTAB
0
TABLE
2
UCS
5
7
100
AcDbSymbolTable
70
0
0
ENDTAB
0
TABLE
2
APPID
5
9
100
AcDbSymbolTable
70
2
0
APPID
5
12
100
AcDbSymbolTableRecord
100
AcDbRegAppTableRecord
2
ACAD
70
0
0
ENDTAB
0
TABLE
2
DIMSTYLE
5
A
100
AcDbSymbolTable
70
1
0
ENDTAB
0
TABLE
2
BLOCK_RECORD
5
1
100
AcDbSymbolTable
70
1
0
BLOCK_RECORD
5
1F
100
AcDbSymbolTableRecord
100
AcDbBlockTableRecord
2
*MODEL_SPACE
0
BLOCK_RECORD
5
1B
100
AcDbSymbolTableRecord
100
AcDbBlockTableRecord
2
*PAPER_SPACE
0
ENDTAB
0
ENDSEC
0
SECTION
2
BLOCKS
0
BLOCK
5
20
100
AcDbEntity
100
AcDbBlockBegin
2
*MODEL_SPACE
0
ENDBLK
5
21
100
AcDbEntity
100
AcDbBlockEnd
0
BLOCK
5
1C
100
AcDbEntity
100
AcDbBlockBegin
2
*PAPER_SPACE
0
ENDBLK
5
1D
100
AcDbEntity
100
AcDbBlockEnd
0
ENDSEC
0
SECTION
2
ENTITIES
0
LINE
5
100
100
AcDbEntity
8
0
100
AcDbLine
10
12.529558899818802
20
8.1678959960540425
30
0
11
22.716269792179563
21
8.1678959960540425
31
0
0
LINE
5
101
100
AcDbEntity
8
0
100
AcDbLine
10
22.716269792179563
20
8.1678959960540425
30
0
11
22.716269792179563
21
14.249319054798978
31
0
0
LINE
5
102
100
AcDbEntity
8
0
100
AcDbLine
10
22.716269792179563
20
14.249319054798978
30
0
11
22.203817146872709
21
14.249319054798978
31
0
0
SPLINE
5
103
100
AcDbEntity
8
0
100
AcDbSpline
70
1064
71
5
72
16
73
10
74
0
42
0.000000001
43
0.0000000001
44
0.0000000001
40
-1
40
-1
40
-1
40
-1
40
-1
40
-1
40
-0.80000000000000004
40
-0.60000000000000009
40
-0.40000000000000002
40
-0.20000000000000001
40
-0
40
-0
40
-0
40
-0
40
-0
40
-0
10
22.203817146872709
20
14.249319054798978
30
0
10
21.994900979116402
20
14.249319054798978
30
0
10
21.599308464112074
20
14.265721781727708
30
0
10
21.072579133159799
20
14.339489785859605
30
0
10
20.485201126845503
20
14.522610794403061
30
0
10
19.878481156735823
20
14.845550103150531
30
0
10
19.455678706551534
20
15.150051943223241
30
0
10
19.162211727331339
20
15.395859944566727
30
0
10
18.976388917042762
20
15.566975933821674
30
0
10
18.885934005329048
20
15.654345687268405
30
0
0
SPLINE
5
104
100
AcDbEntity
8
0
100
AcDbSpline
70
1064
71
5
72
16
73
10
74
0
42
0.000000001
43
0.0000000001
44
0.0000000001
40
0
40
0
40
0
40
0
40
0
40
0
40
0.20000000000000001
40
0.40000000000000002
40
0.60000000000000009
40
0.80000000000000004
40
0.9855607355657614
40
0.9855607355657614
40
0.9855607355657614
40
0.9855607355657614
40
0.9855607355657614
40
0.9855607355657614
10
18.885934005329048
20
15.654345687268405
30
0
10
18.838890709306536
20
15.703963414380876
30
0
10
18.746912051040908
20
15.805031702098651
30
0
10
18.615263897006507
20
15.962126923647592
30
0
10
18.452118458856592
20
16.180396003965324
30
0
10
18.275061367213478
20
16.454311603049096
30
0
10
18.160371045986935
20
16.668414186960273
30
0
10
18.095656639047057
20
16.821617299589295
30
0
10
18.063381342677623
20
16.919046170187212
30
0
10
18.050264261950726
20
16.965126735731367
30
0
0
ARC
5
105
100
AcDbEntity
8
0
100
AcDbCircle
10
17.984748948338858
20
16.956589625428414
30
0
40
0.066069195318139512
100
AcDbArc
50
-336.43223625986718
51
7.4242143713179294
0
SPLINE
5
106
100
AcDbEntity
8
0
100
AcDbSpline
70
1064
71
5
72
46
73
40
74
0
42
0.000000001
43
0.0000000001
44
0.0000000001
40
0
40
0
40
0
40
0
40
0
40
0
40
0.028571428571428571
40
0.057142857142857141
40
0.085714285714285715
40
0.11428571428571428
40
0.14285714285714285
40
0.17142857142857143
40
0.20000000000000001
40
0.22857142857142859
40
0.25714285714285717
40
0.28571428571428575
40
0.31428571428571433
40
0.34285714285714292
40
0.3714285714285715
40
0.40000000000000008
40
0.42857142857142866
40
0.45714285714285724
40
0.48571428571428582
40
0.51428571428571435
40
0.54285714285714293
40
0.57142857142857151
40
0.60000000000000009
40
0.62857142857142867
40
0.65714285714285725
40
0.68571428571428583
40
0.71428571428571441
40
0.74285714285714299
40
0.77142857142857157
40
0.80000000000000016
40
0.82857142857142874
40
0.85714285714285732
40
0.8857142857142859
40
0.91428571428571448
40
0.94285714285714306
40
0.97142857142857164
40
1
40
1
40
1
40
1
40
1
40
1
10
18.045307168866401
20
16.983006296235377
30
0
10
18.030182558824862
20
17.017678321222245
30
0
10
18.001310070862704
20
17.087054339481501
30
0
10
17.962131543062526
20
17.19121427710812
30
0
10
17.918014200139886
20
17.330156631848435
30
0
10
17.875572011115256
20
17.503146358367847
30
0
10
17.844735631871668
20
17.674361077385516
30
0
10
17.824352926744552
20
17.84259631906923
30
0
10
17.813420503429814
20
18.006698355541889
30
0
10
17.811313617510546
20
18.165752184910428
30
0
10
17.817935577367869
20
18.319215352122921
30
0
10
17.833487174455524
20
18.46679359065023
30
0
10
17.858289735915111
20
18.60835395892542
30
0
10
17.892584258402088
20
18.743823510658252
30
0
10
17.936346416585376
20
18.873099006704642
30
0
10
17.989073940010538
20
18.99594276458647
30
0
10
18.049873945064924
20
19.11203959089152
30
0
10
18.117574537878703
20
19.221068037961796
30
0
10
18.190825607386756
20
19.322767271558543
30
0
10
18.268201104649773
20
19.417006609988615
30
0
10
18.348301656592746
20
19.503856070944053
30
0
10
18.429959986740194
20
19.583535811239056
30
0
10
18.512467391460866
20
19.65636490247212
30
0
10
18.595755493428616
20
19.722713301485257
30
0
10
18.680692077327588
20
19.782950109733861
30
0
10
18.76901989427293
20
19.837406471023947
30
0
10
18.862666819984103
20
19.886364450517146
30
0
10
18.963180410371137
20
19.930039872959135
30
0
10
19.071147284585908
20
19.968569240650275
30
0
10
19.185516704124101
20
20.001991539729232
30
0
10
19.304331024282614
20
20.030283232777801
30
0
10
19.425631705830426
20
20.053399877919098
30
0
10
19.548259773586704
20
20.071314023564661
30
0
10
19.672797634870175
20
20.08405942874225
30
0
10
19.802179251621272
20
20.091761255262391
30
0
10
19.940492472047961
20
20.094587545845997
30
0
10
20.061702299913279
20
20.093086228287365
30
0
10
20.160073532696114
20
20.08990489555082
30
0
10
20.229169077228303
20
20.086878345074005
30
0
10
20.264595518602601
20
20.085138653756516
30
0
0
LINE
5
107
100
AcDbEntity
8
0
100
AcDbLine
10
20.264595518602597
20
20.085138653756516
30
0
11
20.264595518602601
21
20.783317642172161
31
0
0
LINE
5
108
100
AcDbEntity
8
0
100
AcDbLine
10
20.264595518602601
20
20.783317642172161
30
0
11
15.280241047861743
21
20.783317642172161
31
0
0
LINE
5
109
100
AcDbEntity
8
0
100
AcDbLine
10
15.280241047861743
20
20.783317642172161
30
0
11
15.280241047861743
21
14.249319054798978
31
0
0
LINE
5
110
100
AcDbEntity
8
0
100
AcDbLine
10
15.280241047861743
20
14.249319054798978
30
0
11
12.529558899818802
21
14.249319054798978
31
0
0
LINE
5
111
100
AcDbEntity
8
0
100
AcDbLine
10
12.529558899818802
20
14.249319054798978
30
0
11
12.529558899818802
21
8.1678959960540425
31
0
0
ENDSEC
0
SECTION
2
OBJECTS
0
DICTIONARY
5
C
100
AcDbDictionary
3
ACAD_GROUP
350
D
3
ACAD_MLINESTYLE
350
17
0
DICTIONARY
5
D
100
AcDbDictionary
0
DICTIONARY
5
1A
330
C
100
AcDbDictionary
0
DICTIONARY
5
17
100
AcDbDictionary
0
ENDSEC
0
EOF
