<?xml version="1.0" encoding="UTF-8" standalone="no"?>
<!-- Generator: Adobe Illustrator 18.1.1, SVG Export Plug-In . SVG Version: 6.00 Build 0)  -->

<svg
   xmlns:dc="http://purl.org/dc/elements/1.1/"
   xmlns:cc="http://creativecommons.org/ns#"
   xmlns:rdf="http://www.w3.org/1999/02/22-rdf-syntax-ns#"
   xmlns:svg="http://www.w3.org/2000/svg"
   xmlns="http://www.w3.org/2000/svg"
   xmlns:sodipodi="http://sodipodi.sourceforge.net/DTD/sodipodi-0.dtd"
   xmlns:inkscape="http://www.inkscape.org/namespaces/inkscape"
   version="1.1"
   id="svg2"
   sodipodi:docname="spinner sample parts.svg"
   inkscape:version="0.91 r13725"
   x="0px"
   y="0px"
   viewBox="0 0 595.3 841.9"
   enable-background="new 0 0 595.3 841.9"
   xml:space="preserve"><metadata
     id="metadata4317"><rdf:RDF><cc:Work
         rdf:about=""><dc:format>image/svg+xml</dc:format><dc:type
           rdf:resource="http://purl.org/dc/dcmitype/StillImage" /><dc:title></dc:title></cc:Work></rdf:RDF></metadata><defs
     id="defs4315" /><sodipodi:namedview
     inkscape:zoom="1.4"
     bordercolor="#666666"
     showgrid="false"
     inkscape:cy="641.79968"
     id="base"
     inkscape:cx="230.17455"
     borderopacity="1.0"
     pagecolor="#ffffff"
     inkscape:window-maximized="0"
     inkscape:window-width="1440"
     inkscape:window-height="855"
     inkscape:pageshadow="2"
     inkscape:window-x="16"
     inkscape:pageopacity="0.0"
     inkscape:window-y="0"
     inkscape:current-layer="layer1"
     inkscape:document-units="px" /><g
     id="layer1"
     inkscape:groupmode="layer"
     inkscape:label="Layer 1"><g
       id="g3022"
       transform="translate(604.95751,-1037.5205)"
       inkscape:label="0"><path
         id="path3024"
         inkscape:connector-curvature="0"
         fill="none"
         stroke="#000000"
         d="M-296.1,1130.1v-7.8h4.6v7.8    C-291.6,1130.1-296.1,1130.1-296.1,1130.1z" /></g><g
       id="g3077"
       transform="translate(418.42558,-865.98115)"
       inkscape:label="0"><path
         id="path3079"
         inkscape:connector-curvature="0"
         fill="none"
         stroke="#000000"
         d="M-102.7,996h-41.8v-6.9h41.9L-102.7,996    L-102.7,996z" /></g><path
       id="path3134"
       inkscape:connector-curvature="0"
       fill="none"
       stroke="#000000"
       d="M144,149c2.1,0,3.8-1.7,3.8-3.8   s-1.7-3.8-3.8-3.8l0,0c-2.1,0-3.8,1.7-3.8,3.8S141.9,149,144,149L144,149z" /><path
       id="path3144"
       inkscape:connector-curvature="0"
       fill="none"
       stroke="#000000"
       d="M144,170.7c2.1,0,3.8-1.7,3.8-3.8   s-1.7-3.8-3.8-3.8l0,0c-2.1,0-3.8,1.7-3.8,3.8S141.9,170.7,144,170.7z" /><path
       id="path3150_1_"
       inkscape:connector-curvature="0"
       fill="none"
       stroke="#000000"
       d="M114,156.4v-18.1h35.4   c3.4,11.5,3.5,23.8,0.2,35.4h-35.8l0.1-35.4h35.4c1.8,5.8,2.7,11.9,2.6,18v-0.2" /><g
       id="g3360"
       transform="translate(117.38282,-895.22554)"
       inkscape:label="0"><path
         id="path3362"
         inkscape:connector-curvature="0"
         fill="none"
         stroke="#000000"
         d="M21.9,951.7H-2.6v-24.4h24.5V951.7z" /></g><path
       id="path3957"
       inkscape:connector-curvature="0"
       fill="none"
       stroke="#000000"
       d="M237.8,77.6c-0.8-0.5-1.8-0.8-2.7-0.9h-27   c-0.6,0-1.1,0.2-1.5,0.5c-0.4,0.3-0.6,0.6-0.7,1v1.3H195v-0.1v-0.6c-0.1-0.4-0.2-0.8-0.4-1c-0.4-0.5-1-0.8-1.8-1h-72.5v0.1   c-0.7,0-1.4,0.2-2.2,0.8c-0.3,0.2-0.8,0.4-1.4,0.5h-2.1v-6.9l0,0c0,0,0,0.6,0,0.6h155c0,0,0-0.3,0-0.3l0,0c0,0,0,6.3,0,6.3   c-0.6,0.2-1,0.6-1.2,0.9c0,0,0,8.4,0,8.4H263v0.1v-4.6c-0.2-1.2-0.5-2.2-1-2.9h0.1c-0.7,0-1.4,0.2-2.2,0.8   c-1.9,1.7-3.6,3.4-4.9,5.4v1.3c0,0-11.5,0-11.5,0v-1.3l0,0.1C240.7,81.2,238.7,78.4,237.8,77.6" /><g
       id="g4253"
       transform="translate(568.63227,-1037.5205)"
       inkscape:label="0"><path
         id="path4255"
         inkscape:connector-curvature="0"
         fill="none"
         stroke="#000000"
         d="M-259.8,1089.8v-7.8h4.6v7.8    C-255.3,1089.8-259.8,1089.8-259.8,1089.8z" /></g><g
       id="g4308"
       transform="translate(418.27763,-842.9612)"
       inkscape:label="0"><path
         id="path4310"
         inkscape:connector-curvature="0"
         fill="none"
         stroke="#000000"
         d="M-102.7,991.4h-41.8v-6.9h41.9    L-102.7,991.4L-102.7,991.4z" /></g><g
       id="g4473"
       transform="translate(288.01273,-924.96823)"
       inkscape:label="0"><path
         id="path4475"
         inkscape:connector-curvature="0"
         fill="none"
         stroke="#000000"
         d="M-10.1,1001h28.9" /><path
         id="path4477"
         inkscape:connector-curvature="0"
         fill="none"
         stroke="#000000"
         d="M18.8,1001v-17.2" /><path
         id="path4479"
         inkscape:connector-curvature="0"
         fill="none"
         stroke="#000000"
         d="M18.8,983.8h-1.4" /><path
         id="path4483"
         inkscape:connector-curvature="0"
         fill="none"
         stroke="#000000"
         d="M11.8,967.3v-2" /><path
         id="path4485"
         inkscape:connector-curvature="0"
         fill="none"
         stroke="#000000"
         d="M11.8,965.3H-2.3" /><path
         id="path4487"
         inkscape:connector-curvature="0"
         fill="none"
         stroke="#000000"
         d="M-2.3,965.3v18.6" /><path
         id="path4489"
         inkscape:connector-curvature="0"
         fill="none"
         stroke="#000000"
         d="M-2.3,983.8h-7.8" /><path
         id="path4491"
         inkscape:connector-curvature="0"
         fill="none"
         stroke="#000000"
         d="M-10.1,983.8v17.2" /></g><path
       id="path4564"
       inkscape:connector-curvature="0"
       fill="none"
       stroke="#000000"
       d="M152.1,23.8v0.8h35.5v-0.8   c-1.6-0.8-2.8-2.2-3.5-4h-24.4h0.1C157.8,21.4,155.3,22.8,152.1,23.8" /><path
       id="path4871"
       inkscape:connector-curvature="0"
       fill="none"
       stroke="#000000"
       d="M113.2,124.8c-0.6,0.3-1.2,0.6-1.9,0.9   c0,0,48.6,0,48.6,0h-0.1v-0.1c0,0-0.2,0-0.2,0c-1.5-0.8-2.5-1.8-3-3.3h0.1c-2.7-11.6-14.2-18.8-25.8-16.1   c-8.1,1.8-14.3,8.1-16.2,16.1c-0.2,0.6-0.5,1.2-0.8,1.8C113.8,124.3,113.6,124.6,113.2,124.8" /><g
       id="g5211"
       transform="translate(269.77321,-847.3178)"
       inkscape:label="0"><g
         id="g4214"><path
           id="path5213"
           inkscape:connector-curvature="0"
           d="m 1.3,1011.6 0,0"
           style="fill:none;stroke:#000000" /><path
           id="path5215"
           inkscape:connector-curvature="0"
           d="m 1.3,1011.5 -0.2,0"
           style="fill:none;stroke:#000000" /><path
           id="path5217"
           inkscape:connector-curvature="0"
           d="m 2.6,1011.5 c -0.7,-0.1 -3.2,-0.8 -3.7,-3.3"
           style="fill:none;stroke:#000000" /><path
           id="path5223_1_"
           inkscape:connector-curvature="0"
           d="M -44.7,1010.1"
           style="fill:none;stroke:#000000" /><path
           id="path5225_2_"
           inkscape:connector-curvature="0"
           d="M -47.3,1011.6"
           style="fill:none;stroke:#000000" /><path
           id="path5227_2_"
           inkscape:connector-curvature="0"
           d="M 1.3,1011.6"
           style="fill:none;stroke:#000000" /></g><path
         id="path5227_1_"
         inkscape:connector-curvature="0"
         d="M -47.3,1012.4"
         style="fill:none;stroke:#000000" /></g><path
       id="path5773"
       inkscape:connector-curvature="0"
       fill="none"
       stroke="#000000"
       d="M169.2,149.8c0.3-0.3,0.6-0.6,0.7-0.7   c0.4-0.6,0.6-1.2,0.8-1.8c1.8-8,8.1-14.2,16.1-16.1c11.6-2.7,23.2,4.5,25.8,16.1c0.5,1.4,1.5,2.5,3,3.3h0.2v0.1h-48.6   C168,150.3,168.7,150.1,169.2,149.8z" /><g
       id="g6017"
       transform="matrix(-1,0,0,-1,184.36024,1013.6128)"
       inkscape:label="0"><path
         id="path6019"
         inkscape:connector-curvature="0"
         fill="none"
         stroke="#000000"
         d="M45.1,986.3h24.5v9.3H45.1V986.3z" /></g><g
       id="g6072"
       transform="translate(63.170356,-897.3205)"
       inkscape:label="0"><path
         id="path6074"
         inkscape:connector-curvature="0"
         fill="none"
         stroke="#000000"
         d="M38.2,1044.6v-67.1H2.8v67.1H38.2z" /><path
         id="path6076"
         inkscape:connector-curvature="0"
         fill="none"
         stroke="#000000"
         d="M41.5,1070.4H-0.5v-155h41.9V1070.4z" /></g><g
       id="g6240"
       transform="matrix(0,1,-1,0,1146.2175,80.579238)"
       inkscape:label="0"><path
         id="path6242"
         inkscape:connector-curvature="0"
         fill="none"
         stroke="#000000"
         d="M-24.1,1003.5h-24.5v-5.1h24.5V1003.5z" /></g><g
       id="g6295"
       transform="matrix(0,1,-1,0,1375.2774,248.80667)"
       inkscape:label="0"><path
         id="path6297"
         inkscape:connector-curvature="0"
         fill="none"
         stroke="#000000"
         d="M-121.2,1106.3h5.4v55.7h-5.4V1106.3z" /></g><path
       id="path6352"
       inkscape:connector-curvature="0"
       fill="none"
       stroke="#000000"
       d="M272,113.7v5.4h-55.7v-5.4H272z" /></g><g
     id="g4931_1_"
     transform="translate(227.62984,-911.66528)"
     inkscape:label="0"><path
       id="path4933_1_"
       inkscape:connector-curvature="0"
       d="m 88.5,1076.2 0,0"
       style="fill:none;stroke:#000000" /><path
       id="path4935_1_"
       inkscape:connector-curvature="0"
       d="m 88.5,1076.2 0,0.3"
       style="fill:none;stroke:#000000" /><path
       id="path4937_3_"
       inkscape:connector-curvature="0"
       d="M -66.5,1076.5"
       style="fill:none;stroke:#000000" /><path
       id="path4937_2_"
       inkscape:connector-curvature="0"
       d="M 88.5,1076.5"
       style="fill:none;stroke:#000000" /><path
       id="path4939_1_"
       inkscape:connector-curvature="0"
       d="m -66.5,1076.5 0,-0.6"
       style="fill:none;stroke:#000000" /><path
       id="path4941_1_"
       inkscape:connector-curvature="0"
       d="m -66.5,1075.9 0,0"
       style="fill:none;stroke:#000000" /><path
       id="path4943_1_"
       inkscape:connector-curvature="0"
       d="m -66.6,1075.9 0,6.9"
       style="fill:none;stroke:#000000" /><path
       id="path4945_1_"
       inkscape:connector-curvature="0"
       d="m -66.6,1082.8 2.1,0"
       style="fill:none;stroke:#000000" /><path
       id="path4947_1_"
       inkscape:connector-curvature="0"
       d="m -64.8,1082.8 c 0.6,-0.1 1.3,-0.2 1.6,-0.5"
       style="fill:none;stroke:#000000" /><path
       id="path4949_1_"
       inkscape:connector-curvature="0"
       d="m -63.1,1082.3 c 0.8,-0.6 1.5,-0.8 2.2,-0.8"
       style="fill:none;stroke:#000000" /><path
       id="path4951_1_"
       inkscape:connector-curvature="0"
       d="m -61.2,1081.5 72.8,0"
       style="fill:none;stroke:#000000" /><path
       id="path4953_1_"
       inkscape:connector-curvature="0"
       d="m 11.3,1081.5 c 2.2,0.6 2.4,2.1 2.8,2.6"
       style="fill:none;stroke:#000000" /><path
       id="path4955_3_"
       inkscape:connector-curvature="0"
       d="M 13.8,1083.5"
       style="fill:none;stroke:#000000" /><path
       id="path4955_2_"
       inkscape:connector-curvature="0"
       d="M 13.4,1082.5"
       style="fill:none;stroke:#000000" /><path
       id="path4957_3_"
       inkscape:connector-curvature="0"
       d="M 13.7,1084.1"
       style="fill:none;stroke:#000000" /><path
       id="path4957_2_"
       inkscape:connector-curvature="0"
       d="M 13.7,1083.5"
       style="fill:none;stroke:#000000" /><path
       id="path4959_1_"
       inkscape:connector-curvature="0"
       d="m 13.7,1084.1 10.8,0"
       style="fill:none;stroke:#000000" /><path
       id="path4961_1_"
       inkscape:connector-curvature="0"
       d="m 24.5,1084.3 0,-1.6"
       style="fill:none;stroke:#000000" /><path
       id="path4963_1_"
       inkscape:connector-curvature="0"
       d="m 24.5,1082.9 c 0.1,-0.3 0.3,-0.6 0.7,-1"
       style="fill:none;stroke:#000000" /><path
       id="path4965_1_"
       inkscape:connector-curvature="0"
       d="m 25.3,1081.9 c 0.4,-0.3 1,-0.5 1.5,-0.5"
       style="fill:none;stroke:#000000" /><path
       id="path4967_1_"
       inkscape:connector-curvature="0"
       d="m 26.8,1081.4 27,0"
       style="fill:none;stroke:#000000" /><path
       id="path4969_1_"
       inkscape:connector-curvature="0"
       d="m 53.8,1081.4 c 1,0.1 1.9,0.4 2.7,0.9"
       style="fill:none;stroke:#000000" /><path
       id="path4971_1_"
       inkscape:connector-curvature="0"
       d="m 56.5,1082.3 c 1,0.7 2.9,3.6 5.7,8.4"
       style="fill:none;stroke:#000000" /><path
       id="path4973_1_"
       inkscape:connector-curvature="0"
       d="m 62.2,1090.6 0,1.3"
       style="fill:none;stroke:#000000" /><path
       id="path4975_1_"
       inkscape:connector-curvature="0"
       d="m 62.2,1091.8 11.5,0"
       style="fill:none;stroke:#000000" /><path
       id="path4977_1_"
       inkscape:connector-curvature="0"
       d="m 73.7,1091.8 0,-1.3"
       style="fill:none;stroke:#000000" /><path
       id="path4979_1_"
       inkscape:connector-curvature="0"
       d="m 73.7,1090.7 c 1.3,-1.9 3.4,-4.1 5.3,-5.8"
       style="fill:none;stroke:#000000" /><path
       id="path4981_1_"
       inkscape:connector-curvature="0"
       d="m 78.6,1085.2 c 0.8,-0.6 1.5,-0.8 2.2,-0.8"
       style="fill:none;stroke:#000000" /><path
       id="path4983_1_"
       inkscape:connector-curvature="0"
       d="m 80.9,1084.4 c 0.5,0.7 0.8,1.7 1,2.9"
       style="fill:none;stroke:#000000" /><path
       id="path4985_1_"
       inkscape:connector-curvature="0"
       d="m 81.7,1086.8 0,5.1"
       style="fill:none;stroke:#000000" /><path
       id="path4987_1_"
       inkscape:connector-curvature="0"
       d="m 81.7,1091.8 5.7,0"
       style="fill:none;stroke:#000000" /><path
       id="path4989_1_"
       inkscape:connector-curvature="0"
       d="m 87.3,1091.8 0,-8.4"
       style="fill:none;stroke:#000000" /><path
       id="path4991_1_"
       inkscape:connector-curvature="0"
       d="m 87.3,1083.7 c 0.2,-0.3 0.6,-0.9 1.2,-1.1"
       style="fill:none;stroke:#000000" /><path
       id="path4993_1_"
       inkscape:connector-curvature="0"
       d="m 88.5,1082.6 0,-6.7"
       style="fill:none;stroke:#000000" /></g><path
     fill="none"
     stroke="#000000"
     d="M299.8,42.1c-5.7,10.3,2.5,16.6,5.5,16.6"
     id="path4285" /><line
     x1="161.04285"
     y1="164.25714"
     x2="222.54285"
     y2="164.25714"
     id="line4287"
     style="fill:none;stroke:#000000" /><line
     x1="271.04285"
     y1="164.15715"
     x2="316.04285"
     y2="164.15715"
     id="line4289"
     style="fill:none;stroke:#000000" /><path
     id="path3957_1_"
     inkscape:connector-curvature="0"
     fill="none"
     stroke="#000000"
     d="M237.1,98.4c-0.8-0.5-1.8-0.8-2.7-0.9h-27  c-0.6,0-1.1,0.2-1.5,0.5c-0.4,0.3-0.6,0.6-0.7,1v1.3h-10.8v-0.1v-0.6c-0.1-0.4-0.2-0.8-0.4-1c-0.4-0.5-1-0.8-1.8-1h-72.5v0.1  c-0.7,0-1.4,0.2-2.2,0.8c-0.3,0.2-0.8,0.4-1.4,0.5H114v-6.9l0,0c0,0,0,0.6,0,0.6h155c0,0,0-0.3,0-0.3l0,0c0,0,0,6.3,0,6.3  c-0.6,0.2-1,0.6-1.2,0.9c0,0,0,8.4,0,8.4h-5.5v0.1v-4.6c-0.2-1.2-0.5-2.2-1-2.9h0.1c-0.7,0-1.4,0.2-2.2,0.8  c-1.9,1.7-3.6,3.4-4.9,5.4v1.3c0,0-11.5,0-11.5,0v-1.3v0.1C240,102,238.1,99.2,237.1,98.4" /><path
     id="path4564_1_"
     inkscape:connector-curvature="0"
     fill="none"
     stroke="#000000"
     d="M152.1,33.6v0.8h35.5v-0.8  c-1.6-0.8-2.8-2.2-3.5-4h-24.4h0.1C157.8,31.3,155.3,32.6,152.1,33.6" /><g
     id="g4473_1_"
     transform="translate(288.01273,-924.96823)"
     inkscape:label="0"><path
       id="path4475_1_"
       inkscape:connector-curvature="0"
       fill="none"
       stroke="#000000"
       d="M-8.1,1043h28.9" /><path
       id="path4477_1_"
       inkscape:connector-curvature="0"
       fill="none"
       stroke="#000000"
       d="M20.8,1043v-17.2" /><path
       id="path4479_1_"
       inkscape:connector-curvature="0"
       fill="none"
       stroke="#000000"
       d="M20.8,1025.8h-1.4" /><path
       id="path4483_1_"
       inkscape:connector-curvature="0"
       fill="none"
       stroke="#000000"
       d="M13.8,1009.3v-2" /><path
       id="path4485_1_"
       inkscape:connector-curvature="0"
       fill="none"
       stroke="#000000"
       d="M13.8,1007.3H-0.3" /><path
       id="path4487_1_"
       inkscape:connector-curvature="0"
       fill="none"
       stroke="#000000"
       d="M-0.3,1007.3v18.6" /><path
       id="path4489_1_"
       inkscape:connector-curvature="0"
       fill="none"
       stroke="#000000"
       d="M-0.3,1025.8h-7.8" /><path
       id="path4491_1_"
       inkscape:connector-curvature="0"
       fill="none"
       stroke="#000000"
       d="M-8.1,1025.8v17.2" /></g><path
     fill="none"
     stroke="#000000"
     d="M301.8,84.1c-5.7,10.3,2.5,16.6,5.5,16.6"
     id="path4308" /><path
     d="m 224.84286,163.45714 c 0,-11.7 9.8,-21.3 22,-21.3 12.2,0 22,9.5 22,21.3"
     id="path4312"
     inkscape:connector-curvature="0"
     style="fill:none;stroke:#000000" /><path
     id="path5217_1_"
     inkscape:connector-curvature="0"
     d="m 224.84286,161.05714 c -0.5,2.5 -3,3.2 -3.7,3.3"
     style="fill:none;stroke:#000000" /></svg>