0
SECTION
2
HEADER
9
$ACADVER
1
AC1014
9
$HANDSEED
5
FFFF
0
ENDSEC
0
SECTION
2
TABLES
0
TABLE
2
VPORT
5
8
100
AcDbSymbolTable
0
ENDTAB
0
TABLE
2
LTYPE
5
5
100
AcDbSymbolTable
0
LTYPE
5
14
100
AcDbSymbolTableRecord
100
AcDbLinetypeTableRecord
2
BYBLOCK
70
0
0
LTYPE
5
15
100
AcDbSymbolTableRecord
100
AcDbLinetypeTableRecord
2
BYLAYER
70
0
0
ENDTAB
0
TABLE
2
LAYER
5
2
100
AcDbSymbolTable
70
2
0
LAYER
5
50
100
AcDbSymbolTableRecord
100
AcDbLayerTableRecord
2
0
70
0
6
CONTINUOUS
0
ENDTAB
0
TABLE
2
STYLE
5
3
100
AcDbSymbolTable
70
1
0
STYLE
5
11
100
AcDbSymbolTableRecord
100
AcDbTextStyleTableRecord
2
STANDARD
70
0
0
ENDTAB
0
TABLE
2
VIEW
5
6
100
AcDbSymbolTable
70
0
0
ENDTAB
0
TABLE
2
UCS
5
7
100
AcDbSymbolTable
70
0
0
ENDTAB
0
TABLE
2
APPID
5
9
100
AcDbSymbolTable
70
2
0
APPID
5
12
100
AcDbSymbolTableRecord
100
AcDbRegAppTableRecord
2
ACAD
70
0
0
ENDTAB
0
TABLE
2
DIMSTYLE
5
A
100
AcDbSymbolTable
70
1
0
ENDTAB
0
TABLE
2
BLOCK_RECORD
5
1
100
AcDbSymbolTable
70
1
0
BLOCK_RECORD
5
1F
100
AcDbSymbolTableRecord
100
AcDbBlockTableRecord
2
*MODEL_SPACE
0
BLOCK_RECORD
5
1B
100
AcDbSymbolTableRecord
100
AcDbBlockTableRecord
2
*PAPER_SPACE
0
ENDTAB
0
ENDSEC
0
SECTION
2
BLOCKS
0
BLOCK
5
20
100
AcDbEntity
100
AcDbBlockBegin
2
*MODEL_SPACE
0
ENDBLK
5
21
100
AcDbEntity
100
AcDbBlockEnd
0
BLOCK
5
1C
100
AcDbEntity
100
AcDbBlockBegin
2
*PAPER_SPACE
0
ENDBLK
5
1D
100
AcDbEntity
100
AcDbBlockEnd
0
ENDSEC
0
SECTION
2
ENTITIES
0
SPLINE
5
100
100
AcDbEntity
8
0
100
AcDbSpline
70
1064
71
3
72
12
73
8
74
0
42
0.000000001
43
0.0000000001
44
0.0000000001
40
0
40
0
40
0
40
0
40
0.29590980496187763
40
0.29590980496187763
40
0.41897763110275321
40
0.41897763110275321
40
0.50494236291114558
40
0.50494236291114558
40
0.50494236291114558
40
0.50494236291114558
10
48.720012544832088
20
5.1712240454970964
30
0
10
49.647164421921588
20
5.5078355654924707
30
0
10
50.664697246105348
20
5.8931314806183446
30
0
10
53.149191184381415
20
5.9498429751866242
30
0
10
53.835268966054116
20
5.883650402291968
30
0
10
55.459276151740511
20
5.4934281772816345
30
0
10
56.238022548233502
20
5.257959131300046
30
0
10
56.396588435608791
20
5.1496597654348459
30
0
0
SPLINE
5
101
100
AcDbEntity
8
0
100
AcDbSpline
70
1064
71
3
72
14
73
10
74
0
42
0.000000001
43
0.0000000001
44
0.0000000001
40
0
40
0
40
0
40
0
40
0.0011391601092165622
40
0.0011391601092165622
40
0.0057519597526955336
40
0.0057519597526955336
40
0.021525218493457766
40
0.021525218493457766
40
0.033852286646900508
40
0.033852286646900508
40
0.033852286646900508
40
0.033852286646900508
10
56.396588435608791
20
5.1496597654348459
30
0
10
56.400285219512803
20
5.1487922866905524
30
0
10
56.404502822786959
20
5.1469259779016143
30
0
10
56.424150409983241
20
5.1367884081369386
30
0
10
56.445034099437919
20
5.1208682997885946
30
0
10
56.505977233601321
20
5.0721717815313276
30
0
10
56.598118857158113
20
4.9896058590818706
30
0
10
56.746032373179922
20
4.7970052938503285
30
0
10
56.818063315232017
20
4.6805141350735067
30
0
10
56.869185072337764
20
4.5172945964824285
30
0
0
SPLINE
5
102
100
AcDbEntity
8
0
100
AcDbSpline
70
1064
71
3
72
16
73
12
74
0
42
0.000000001
43
0.0000000001
44
0.0000000001
40
0
40
0
40
0
40
0
40
0.030143344529139263
40
0.030143344529139263
40
0.066275334770730859
40
0.066275334770730859
40
0.12059745904018537
40
0.12059745904018537
40
0.17196767209058361
40
0.17196767209058361
40
0.26718565486241802
40
0.26718565486241802
40
0.26718565486241802
40
0.26718565486241802
10
56.869185072337757
20
4.5172945964824276
30
0
10
56.883153388136606
20
4.4177924483627171
30
0
10
56.878239521459989
20
4.3191767463161854
30
0
10
56.822191875746114
20
4.1054796851387483
30
0
10
56.768627078553074
20
4.0149242805217549
30
0
10
56.660911377002876
20
3.8628424587681254
30
0
10
56.575051460966634
20
3.7766272618566887
30
0
10
56.376540010863806
20
3.6483934306770194
30
0
10
56.28222476999278
20
3.6149986889779822
30
0
10
56.033117985199866
20
3.5586745800073767
30
0
10
55.851797020886941
20
3.5592387419298621
30
0
10
55.815300542872933
20
3.559293196534191
30
0
0
LINE
5
103
100
AcDbEntity
8
0
100
AcDbLine
10
55.815300542872947
20
3.559293196534191
30
0
11
49.070857364744114
21
3.559293196534191
31
0
0
SPLINE
5
104
100
AcDbEntity
8
0
100
AcDbSpline
70
1064
71
3
72
20
73
16
74
0
42
0.000000001
43
0.0000000001
44
0.0000000001
40
0
40
0
40
0
40
0
40
0.047503419910720407
40
0.047503419910720407
40
0.090003037670568858
40
0.090003037670568858
40
0.13854798640221588
40
0.13854798640221588
40
0.18366407733957268
40
0.18366407733957268
40
0.23297561546212478
40
0.23297561546212478
40
0.28675760706496767
40
0.28675760706496767
40
0.37110970007571875
40
0.37110970007571875
40
0.37110970007571875
40
0.37110970007571875
10
49.070857364744114
20
3.559293196534191
30
0
10
48.914313606740798
20
3.5831071905367966
30
0
10
48.759049482729822
20
3.6284067684431682
30
0
10
48.499497243310323
20
3.7799334772263844
30
0
10
48.419265549688326
20
3.8625115121290716
30
0
10
48.302942390464814
20
4.0166361640418131
30
0
10
48.256759732467046
20
4.1098555487089907
30
0
10
48.205049252855559
20
4.3014416729314284
30
0
10
48.197730603220407
20
4.3958131751302689
30
0
10
48.217166044026285
20
4.5951688602530965
30
0
10
48.246381753479568
20
4.6924260641620794
30
0
10
48.320873057887056
20
4.8506889696614035
30
0
10
48.370377915953071
20
4.9140910288152142
30
0
10
48.544679873998504
20
5.0712430948272935
30
0
10
48.697184907909474
20
5.1625752421053406
30
0
10
48.720012544832088
20
5.1712240454970964
30
0
0
SPLINE
5
105
100
AcDbEntity
8
0
100
AcDbSpline
70
1064
71
5
72
41
73
35
74
0
42
0.000000001
43
0.0000000001
44
0.0000000001
40
-1
40
-1
40
-1
40
-1
40
-1
40
-1
40
-0.96666666666666656
40
-0.93333333333333324
40
-0.89999999999999991
40
-0.86666666666666659
40
-0.83333333333333326
40
-0.79999999999999993
40
-0.76666666666666661
40
-0.73333333333333328
40
-0.69999999999999996
40
-0.66666666666666663
40
-0.6333333333333333
40
-0.59999999999999998
40
-0.56666666666666665
40
-0.53333333333333333
40
-0.49999999999999994
40
-0.46666666666666662
40
-0.43333333333333329
40
-0.39999999999999997
40
-0.36666666666666664
40
-0.33333333333333331
40
-0.29999999999999999
40
-0.26666666666666666
40
-0.23333333333333331
40
-0.19999999999999998
40
-0.16666666666666666
40
-0.13333333333333333
40
-0.10000000000000001
40
-0.066666666666666666
40
-0.033333333333333333
40
-0
40
-0
40
-0
40
-0
40
-0
40
-0
10
36.331174595366093
20
3.559293196534191
30
0
10
36.304227834462381
20
3.5633924337745353
30
0
10
36.251317808989015
20
3.572511962716967
30
0
10
36.174903258523457
20
3.5889544183557334
30
0
10
36.078928861842819
20
3.6164140344093534
30
0
10
35.968897680387258
20
3.659961592011908
30
0
10
35.868947297410905
20
3.7126178979005613
30
0
10
35.779283032314154
20
3.7740756377269347
30
0
10
35.700171826787091
20
3.8437492086560274
30
0
10
35.631940988908354
20
3.9206863236804317
30
0
10
35.574976229687287
20
4.0034771285619666
30
0
10
35.529604078076716
20
4.0903968003456628
30
0
10
35.495978499018257
20
4.1795431737445927
30
0
10
35.473951192381833
20
4.2689762580305972
30
0
10
35.462969843034664
20
4.356849796569719
30
0
10
35.461895761212638
20
4.4415611379372075
30
0
10
35.469099206567975
20
4.5218356396717247
30
0
10
35.482811727388807
20
4.5967435983331164
30
0
10
35.501424091058446
20
4.6657455710283955
30
0
10
35.523764129336925
20
4.7287152533319707
30
0
10
35.549484936472091
20
4.7860122403829868
30
0
10
35.579047794591233
20
4.8384087268386224
30
0
10
35.613163092241166
20
4.8868272154094372
30
0
10
35.652343871732036
20
4.9321167021818004
30
0
10
35.696463212513599
20
4.9748368356583628
30
0
10
35.744175822015237
20
5.014980133748046
30
0
10
35.793154639001308
20
5.0520587999747377
30
0
10
35.840643495405374
20
5.0853321346818445
30
0
10
35.883896617760001
20
5.1139843188965965
30
0
10
35.920676322387891
20
5.137327234182
30
0
10
35.949696228591634
20
5.1549812991531354
30
0
10
35.96621700079951
20
5.1644208026904064
30
0
10
35.974765059677878
20
5.1688509405385155
30
0
10
35.97875899576708
20
5.170628917550629
30
0
10
35.980329775454067
20
5.1712240454970964
30
0
0
SPLINE
5
106
100
AcDbEntity
8
0
100
AcDbSpline
70
1064
71
5
72
41
73
35
74
0
42
0.000000001
43
0.0000000001
44
0.0000000001
40
0
40
0
40
0
40
0
40
0
40
0
40
0.033333333333333333
40
0.066666666666666666
40
0.10000000000000001
40
0.13333333333333333
40
0.16666666666666666
40
0.19999999999999998
40
0.23333333333333331
40
0.26666666666666666
40
0.29999999999999999
40
0.33333333333333331
40
0.36666666666666664
40
0.39999999999999997
40
0.43333333333333329
40
0.46666666666666662
40
0.49999999999999994
40
0.53333333333333333
40
0.56666666666666665
40
0.59999999999999998
40
0.6333333333333333
40
0.66666666666666663
40
0.69999999999999996
40
0.73333333333333328
40
0.76666666666666661
40
0.79999999999999993
40
0.83333333333333326
40
0.86666666666666659
40
0.89999999999999991
40
0.93333333333333324
40
0.96666666666666656
40
1
40
1
40
1
40
1
40
1
40
1
10
35.980329775454067
20
5.1712240454970964
30
0
10
36.007022358433517
20
5.1809150477496324
30
0
10
36.061850763810249
20
5.2007645884803324
30
0
10
36.148423074754987
20
5.2319415184606957
30
0
10
36.272528038722946
20
5.2763209898711416
30
0
10
36.442332686165585
20
5.336346889612166
30
0
10
36.627299066332945
20
5.4004738043008409
30
0
10
36.828280025847249
20
5.4677617050245031
30
0
10
37.04660026472758
20
5.5365937452380498
30
0
10
37.283572046069295
20
5.6049332049537615
30
0
10
37.539984736687906
20
5.6705936546058897
30
0
10
37.815606433684827
20
5.7314995697251607
30
0
10
38.108648295243441
20
5.7859587321581536
30
0
10
38.415290496332503
20
5.8329127744552745
30
0
10
38.730613858963558
20
5.8717309515834497
30
0
10
39.049438544694162
20
5.9020330475447071
30
0
10
39.36722925181693
20
5.9234967554129003
30
0
10
39.680889164740279
20
5.935693660442027
30
0
10
39.989815570380372
20
5.9378678841119434
30
0
10
40.296186187919474
20
5.9288928864898907
30
0
10
40.603454296601271
20
5.9076414115118983
30
0
10
40.915245101268745
20
5.8732644663334641
30
0
10
41.234031173998659
20
5.825530777283908
30
0
10
41.560045035456177
20
5.7651007589191572
30
0
10
41.889702031885612
20
5.6939534370288918
30
0
10
42.215787509687019
20
5.6152675751462668
30
0
10
42.529055618365028
20
5.5328643813692651
30
0
10
42.819390398532121
20
5.4507890186272689
30
0
10
43.077178829069787
20
5.3728247262910811
30
0
10
43.294507012580219
20
5.3020678335468343
30
0
10
43.466688368093003
20
5.2403857860847225
30
0
10
43.5666473552414
20
5.1989962703225281
30
0
10
43.620120251219788
20
5.1725458702185554
30
0
10
43.646233177714812
20
5.1569489986842765
30
0
10
43.656905666230763
20
5.1496597654348459
30
0
0
SPLINE
5
107
100
AcDbEntity
8
0
100
AcDbSpline
70
1064
71
5
72
26
73
20
74
0
42
0.000000001
43
0.0000000001
44
0.0000000001
40
0
40
0
40
0
40
0
40
0
40
0
40
0.066666666666666666
40
0.13333333333333333
40
0.20000000000000001
40
0.26666666666666666
40
0.33333333333333331
40
0.39999999999999997
40
0.46666666666666662
40
0.53333333333333333
40
0.59999999999999998
40
0.66666666666666663
40
0.73333333333333328
40
0.79999999999999993
40
0.86666666666666659
40
0.93333333333333324
40
1
40
1
40
1
40
1
40
1
40
1
10
43.656905666230763
20
5.1496597654348459
30
0
10
43.658985697903852
20
5.1491716700225334
30
0
10
43.663669073924368
20
5.1476088808659091
30
0
10
43.672264117673791
20
5.1435048827902001
30
0
10
43.686886603186714
20
5.134487839243242
30
0
10
43.710495927717261
20
5.1171743113021764
30
0
10
43.73936789679324
20
5.0936916102735132
30
0
10
43.773179417574333
20
5.0639978998285242
30
0
10
43.811153895236629
20
5.0282641040885556
30
0
10
43.85201534609169
20
4.9869185314238509
30
0
10
43.89424932455686
20
4.9405169151232888
30
0
10
43.936285902959213
20
4.8896707407950233
30
0
10
43.976692467035356
20
4.8349741730884199
30
0
10
44.014392118069281
20
4.7769442338524026
30
0
10
44.048795052037157
20
4.7159797613633012
30
0
10
44.079624450976667
20
4.6523706964377896
30
0
10
44.101375951329899
20
4.5995175138876148
30
0
10
44.116065922086577
20
4.5588159485008788
30
0
10
44.125142901527369
20
4.5312131221867027
30
0
10
44.129502302959736
20
4.5172945964824285
30
0
0
SPLINE
5
108
100
AcDbEntity
8
0
100
AcDbSpline
70
1064
71
5
72
31
73
25
74
0
42
0.000000001
43
0.0000000001
44
0.0000000001
40
-0.9836433471564594
40
-0.9836433471564594
40
-0.9836433471564594
40
-0.9836433471564594
40
-0.9836433471564594
40
-0.9836433471564594
40
-0.95000000000000029
40
-0.90000000000000024
40
-0.8500000000000002
40
-0.80000000000000016
40
-0.75000000000000011
40
-0.70000000000000007
40
-0.65000000000000002
40
-0.59999999999999998
40
-0.54999999999999993
40
-0.49999999999999994
40
-0.44999999999999996
40
-0.39999999999999997
40
-0.34999999999999998
40
-0.29999999999999999
40
-0.25
40
-0.20000000000000001
40
-0.15000000000000002
40
-0.10000000000000001
40
-0.050000000000000003
40
-0
40
-0
40
-0
40
-0
40
-0
40
-0
10
44.129502302959729
20
4.5172945964824276
30
0
10
44.131342824333935
20
4.5041837939325706
30
0
10
44.135233527259487
20
4.4716623621461098
30
0
10
44.1387261869029
20
4.4199962743070982
30
0
10
44.137523784281036
20
4.3496570304322022
30
0
10
44.125427807320669
20
4.2614056866118339
30
0
10
44.100187654140186
20
4.1687408272529227
30
0
10
44.062931339939198
20
4.0784663193617767
30
0
10
44.014349998658503
20
3.9915938753254721
30
0
10
43.955760267030399
20
3.9096650536361843
30
0
10
43.888969683299962
20
3.8345202587523759
30
0
10
43.816062023475865
20
3.7679784049167573
30
0
10
43.739218919117604
20
3.7115218666053682
30
0
10
43.660548096327659
20
3.6660094173402631
30
0
10
43.581884435352542
20
3.6312501442912564
30
0
10
43.504722071793431
20
3.6060487986140393
30
0
10
43.430263151045494
20
3.5886554432418061
30
0
10
43.359425657570867
20
3.5770942985665228
30
0
10
43.292865252489136
20
3.5694993239206836
30
0
10
43.230971097717799
20
3.5645097885798185
30
0
10
43.173915937552763
20
3.5613277629552567
30
0
10
43.132174408564488
20
3.5598932219922603
30
0
10
43.103050768686074
20
3.5593767160209939
30
0
10
43.084601092192827
20
3.559279792965083
30
0
10
43.075617773494912
20
3.559293196534191
30
0
0
LINE
5
109
100
AcDbEntity
8
0
100
AcDbLine
10
43.075617773494905
20
3.5592931965341918
30
0
11
36.331174595366093
21
3.559293196534191
31
0
0
LWPOLYLINE
5
110
100
AcDbEntity
8
0
100
AcDbPolyline
90
4
70
1
43
0.0
10
29.499102033328089
20
3.559293196534191
42
-0.85167872636450603
10
29.499102033328093
20
5.1825889982091855
10
30.567905704727963
20
5.1825889982091855
42
-0.78293982888077862
10
30.567905704727963
20
3.559293196534191
0
SPLINE
5
111
100
AcDbEntity
8
0
100
AcDbSpline
70
1064
71
2
72
6
73
3
74
0
42
0.000000001
43
0.0000000001
44
0.0000000001
40
0
40
0
40
0
40
0.058423793200605312
40
0.058423793200605312
40
0.058423793200605312
10
29.835762986064598
20
2.5406922182784952
30
0
10
30.014500798270014
20
2.7860615768750008
30
0
10
30.298578512112716
20
2.8653928094004186
30
0
0
LINE
5
112
100
AcDbEntity
8
0
100
AcDbLine
10
30.298578512112737
20
2.8653928094004186
30
0
11
60.781782017155706
21
2.8653928094004186
31
0
0
SPLINE
5
113
100
AcDbEntity
8
0
100
AcDbSpline
70
1064
71
5
72
46
73
40
74
0
42
0.000000001
43
0.0000000001
44
0.0000000001
40
0
40
0
40
0
40
0
40
0
40
0
40
0.028571428571428571
40
0.057142857142857141
40
0.085714285714285715
40
0.11428571428571428
40
0.14285714285714285
40
0.17142857142857143
40
0.20000000000000001
40
0.22857142857142859
40
0.25714285714285717
40
0.28571428571428575
40
0.31428571428571433
40
0.34285714285714292
40
0.3714285714285715
40
0.40000000000000008
40
0.42857142857142866
40
0.45714285714285724
40
0.48571428571428582
40
0.51428571428571435
40
0.54285714285714293
40
0.57142857142857151
40
0.60000000000000009
40
0.62857142857142867
40
0.65714285714285725
40
0.68571428571428583
40
0.71428571428571441
40
0.74285714285714299
40
0.77142857142857157
40
0.80000000000000016
40
0.82857142857142874
40
0.85714285714285732
40
0.8857142857142859
40
0.91428571428571448
40
0.94285714285714306
40
0.97142857142857164
40
1
40
1
40
1
40
1
40
1
40
1
10
60.781782017155706
20
2.8653928094004186
30
0
10
60.77533643765095
20
2.8959185350718473
30
0
10
60.764149982799516
20
2.9580083861332578
30
0
10
60.752484483009674
20
3.0542585764290338
30
0
10
60.747171845255423
20
3.1888294220899258
30
0
10
60.757526518599065
20
3.3670517104251814
30
0
10
60.784506843873778
20
3.5540024707876228
30
0
10
60.827286931593278
20
3.7471134822411667
30
0
10
60.884345628204962
20
3.9418974314670678
30
0
10
60.953463290552548
20
4.132033439486972
30
0
10
61.032176642177106
20
4.3108198943626412
30
0
10
61.118148407488704
20
4.4724022980808611
30
0
10
61.209537071393584
20
4.612946411279875
30
0
10
61.305447396620501
20
4.7322058224475496
30
0
10
61.406055363721293
20
4.8336027517746132
30
0
10
61.512305631651358
20
4.9223390997967247
30
0
10
61.625725094336232
20
5.0040839811604085
30
0
10
61.748183683116473
20
5.0832908464286088
30
0
10
61.881705050553542
20
5.1621044515045593
30
0
10
62.028376108361236
20
5.2410968756793261
30
0
10
62.19024686253956
20
5.3197332762198624
30
0
10
62.369223739877235
20
5.3969108436512716
30
0
10
62.566985281678207
20
5.4715264383356397
30
0
10
62.784742397486525
20
5.5426100183053304
30
0
10
63.022949814646168
20
5.6093084412685652
30
0
10
63.281022643694612
20
5.6709213871837729
30
0
10
63.557054998111646
20
5.7269157962519941
30
0
10
63.847499965118899
20
5.7769532433719029
30
0
10
64.146937048895069
20
5.8209070868831079
30
0
10
64.448722907123269
20
5.8588129294888578
30
0
10
64.745567914246237
20
5.8908250141037612
30
0
10
65.030124702159839
20
5.9171723591741276
30
0
10
65.295596611221328
20
5.9381149469443573
30
0
10
65.536280115810854
20
5.9539037652719697
30
0
10
65.748296686277229
20
5.9647324179745898
30
0
10
65.929483421984088
20
5.9707301103720622
30
0
10
66.048969257885517
20
5.9717273815373249
30
0
10
66.124152578109829
20
5.970354838099202
30
0
10
66.167869133066915
20
5.9684986369833144
30
0
10
66.188126017580259
20
5.9673352422714379
30
0
0
LINE
5
114
100
AcDbEntity
8
0
100
AcDbLine
10
66.188126017580259
20
5.9673352422714379
30
0
11
66.188126017580259
21
8.2267942065332598
31
0
0
LINE
5
115
100
AcDbEntity
8
0
100
AcDbLine
10
66.188126017580259
20
8.2267942065332598
30
0
11
25.355009674874029
21
8.2267942065332598
31
0
0
LINE
5
116
100
AcDbEntity
8
0
100
AcDbLine
10
25.355009674874029
20
8.2267942065332598
30
0
11
25.355009674874029
21
5.8674635180912489
31
0
0
SPLINE
5
117
100
AcDbEntity
8
0
100
AcDbSpline
70
1064
71
2
72
6
73
3
74
0
42
0.000000001
43
0.0000000001
44
0.0000000001
40
-0.09187362353133971
40
-0.09187362353133971
40
-0.09187362353133971
40
-0
40
-0
40
-0
10
25.355009674874029
20
5.8674635180912489
30
0
10
25.813103685020636
20
5.698353799056215
30
0
10
25.964268335164252
20
5.2532578847444622
30
0
0
LINE
5
118
100
AcDbEntity
8
0
100
AcDbLine
10
25.964268335164263
20
5.2532578847444578
30
0
11
25.964268335164252
21
2.5406922182784952
31
0
0
LINE
5
119
100
AcDbEntity
8
0
100
AcDbLine
10
25.964268335164252
20
2.5406922182784952
30
0
11
29.835762986064598
21
2.5406922182784952
31
0
0
ENDSEC
0
SECTION
2
OBJECTS
0
DICTIONARY
5
C
100
AcDbDictionary
3
ACAD_GROUP
350
D
3
ACAD_MLINESTYLE
350
17
0
DICTIONARY
5
D
100
AcDbDictionary
0
DICTIONARY
5
1A
330
C
100
AcDbDictionary
0
DICTIONARY
5
17
100
AcDbDictionary
0
ENDSEC
0
EOF
