0
SECTION
2
HEADER
9
$ACADVER
1
AC1014
9
$HANDSEED
5
FFFF
0
ENDSEC
0
SECTION
2
TABLES
0
TABLE
2
VPORT
5
8
100
AcDbSymbolTable
0
ENDTAB
0
TABLE
2
LTYPE
5
5
100
AcDbSymbolTable
0
LTYPE
5
14
100
AcDbSymbolTableRecord
100
AcDbLinetypeTableRecord
2
BYBLOCK
70
0
0
LTYPE
5
15
100
AcDbSymbolTableRecord
100
AcDbLinetypeTableRecord
2
BYLAYER
70
0
0
ENDTAB
0
TABLE
2
LAYER
5
2
100
AcDbSymbolTable
70
2
0
LAYER
5
50
100
AcDbSymbolTableRecord
100
AcDbLayerTableRecord
2
0
70
0
6
CONTINUOUS
0
ENDTAB
0
TABLE
2
STYLE
5
3
100
AcDbSymbolTable
70
1
0
STYLE
5
11
100
AcDbSymbolTableRecord
100
AcDbTextStyleTableRecord
2
STANDARD
70
0
0
ENDTAB
0
TABLE
2
VIEW
5
6
100
AcDbSymbolTable
70
0
0
ENDTAB
0
TABLE
2
UCS
5
7
100
AcDbSymbolTable
70
0
0
ENDTAB
0
TABLE
2
APPID
5
9
100
AcDbSymbolTable
70
2
0
APPID
5
12
100
AcDbSymbolTableRecord
100
AcDbRegAppTableRecord
2
ACAD
70
0
0
ENDTAB
0
TABLE
2
DIMSTYLE
5
A
100
AcDbSymbolTable
70
1
0
ENDTAB
0
TABLE
2
BLOCK_RECORD
5
1
100
AcDbSymbolTable
70
1
0
BLOCK_RECORD
5
1F
100
AcDbSymbolTableRecord
100
AcDbBlockTableRecord
2
*MODEL_SPACE
0
BLOCK_RECORD
5
1B
100
AcDbSymbolTableRecord
100
AcDbBlockTableRecord
2
*PAPER_SPACE
0
ENDTAB
0
ENDSEC
0
SECTION
2
BLOCKS
0
BLOCK
5
20
100
AcDbEntity
100
AcDbBlockBegin
2
*MODEL_SPACE
0
ENDBLK
5
21
100
AcDbEntity
100
AcDbBlockEnd
0
BLOCK
5
1C
100
AcDbEntity
100
AcDbBlockBegin
2
*PAPER_SPACE
0
ENDBLK
5
1D
100
AcDbEntity
100
AcDbBlockEnd
0
ENDSEC
0
SECTION
2
ENTITIES
0
LWPOLYLINE
5
100
100
AcDbEntity
8
0
100
AcDbPolyline
90
4
70
1
43
0.0
10
50.399998873472214
20
18.656923097811738
10
50.399998873472214
20
19.061028931148325
10
43.399999029934406
20
19.061028931148325
10
43.399999029934406
20
18.656923097811738
0
LWPOLYLINE
5
101
100
AcDbEntity
8
0
100
AcDbPolyline
90
4
70
1
43
0.0
10
35.799999199807644
20
19.061028931148325
10
35.799999199807644
20
18.676813806592385
10
42.799999043345451
20
18.676813806592385
10
42.799999043345451
20
19.061028931148325
0
SPLINE
5
102
100
AcDbEntity
8
0
100
AcDbSpline
70
1064
71
2
72
6
73
3
74
0
42
0.000000001
43
0.0000000001
44
0.0000000001
40
-0.061602570346484767
40
-0.061602570346484767
40
-0.061602570346484767
40
-0
40
-0
40
-0
10
58.625363421483556
20
19.061028931148325
30
0
10
58.829263449130337
20
18.858976014480032
30
0
10
59.089491118544082
20
18.656923097811738
30
0
0
LINE
5
103
100
AcDbEntity
8
0
100
AcDbLine
10
59.089491118544046
20
18.656923097811735
30
0
11
58.625363421483556
21
18.656923097811738
31
0
0
LINE
5
104
100
AcDbEntity
8
0
100
AcDbLine
10
58.625363421483556
20
18.656923097811738
30
0
11
58.625363421483556
21
19.061028931148325
31
0
0
LINE
5
105
100
AcDbEntity
8
0
100
AcDbLine
10
35.203009928924871
20
19.061028931148325
30
0
11
35.203009928924871
21
18.676813806592385
31
0
0
LINE
5
106
100
AcDbEntity
8
0
100
AcDbLine
10
35.203009928924871
20
18.676813806592385
30
0
11
34.710285909090857
21
18.676813806592385
31
0
0
SPLINE
5
107
100
AcDbEntity
8
0
100
AcDbSpline
70
1064
71
2
72
6
73
3
74
0
42
0.000000001
43
0.0000000001
44
0.0000000001
40
-0.052091823931892531
40
-0.052091823931892531
40
-0.052091823931892531
40
-0
40
-0
40
-0
10
34.710285909090857
20
18.676813806592385
30
0
10
34.927351385160634
20
18.883988146659416
30
0
10
35.060640669189837
20
19.061028931148325
30
0
0
LINE
5
108
100
AcDbEntity
8
0
100
AcDbLine
10
35.060640669189851
20
19.061028931148329
30
0
11
35.203009928924871
21
19.061028931148325
31
0
0
LWPOLYLINE
5
109
100
AcDbEntity
8
0
100
AcDbPolyline
90
4
70
1
43
0.0
10
57.999998703598976
20
18.656923097811738
10
57.999998703598976
20
19.061028931148325
10
51.001083772728315
20
19.061028931148325
10
51.001083772728315
20
18.656923097811738
0
LINE
5
110
100
AcDbEntity
8
0
100
AcDbLine
10
31.799999289214611
20
17.964760085344874
30
0
11
33.599999248981476
21
17.964760085344874
31
0
0
SPLINE
5
111
100
AcDbEntity
8
0
100
AcDbSpline
70
1064
71
2
72
6
73
3
74
0
42
0.000000001
43
0.0000000001
44
0.0000000001
40
0
40
0
40
0
40
0.072111914695751622
40
0.072111914695751622
40
0.072111914695751622
10
33.599999248981476
20
17.964760085344874
30
0
10
33.953326098600648
20
18.197463822283851
30
0
10
34.199999235570431
20
18.364760076404178
30
0
0
LINE
5
112
100
AcDbEntity
8
0
100
AcDbLine
10
34.199999235570445
20
18.364760076404188
30
0
11
35.199999213218689
21
18.364760076404178
31
0
0
LINE
5
113
100
AcDbEntity
8
0
100
AcDbLine
10
35.199999213218689
20
18.364760076404178
30
0
11
35.199999213218689
21
17.964760085344874
31
0
0
LINE
5
114
100
AcDbEntity
8
0
100
AcDbLine
10
35.199999213218689
20
17.964760085344874
30
0
11
35.799999199807644
21
17.964760085344874
31
0
0
LINE
5
115
100
AcDbEntity
8
0
100
AcDbLine
10
35.799999199807644
20
17.964760085344874
30
0
11
35.799999199807644
21
18.364760076404178
31
0
0
LINE
5
116
100
AcDbEntity
8
0
100
AcDbLine
10
35.799999199807644
20
18.364760076404178
30
0
11
42.799999043345451
21
18.364760076404178
31
0
0
LINE
5
117
100
AcDbEntity
8
0
100
AcDbLine
10
42.799999043345451
20
18.364760076404178
30
0
11
42.799999043345451
21
17.964760085344874
31
0
0
LINE
5
118
100
AcDbEntity
8
0
100
AcDbLine
10
42.799999043345451
20
17.964760085344874
30
0
11
43.399999029934406
21
17.964760085344874
31
0
0
LINE
5
119
100
AcDbEntity
8
0
100
AcDbLine
10
43.399999029934406
20
17.964760085344874
30
0
11
43.399999029934406
21
18.364760076404178
31
0
0
LINE
5
120
100
AcDbEntity
8
0
100
AcDbLine
10
43.399999029934406
20
18.364760076404178
30
0
11
50.399998873472214
21
18.364760076404178
31
0
0
LINE
5
121
100
AcDbEntity
8
0
100
AcDbLine
10
50.399998873472214
20
18.364760076404178
30
0
11
50.399998873472214
21
17.964760085344874
31
0
0
LINE
5
122
100
AcDbEntity
8
0
100
AcDbLine
10
50.399998873472214
20
17.964760085344874
30
0
11
50.999998860061169
21
17.964760085344874
31
0
0
LINE
5
123
100
AcDbEntity
8
0
100
AcDbLine
10
50.999998860061169
20
17.964760085344874
30
0
11
50.999998860061169
21
18.364760076404178
31
0
0
LINE
5
124
100
AcDbEntity
8
0
100
AcDbLine
10
50.999998860061169
20
18.364760076404178
30
0
11
57.999998703598976
21
18.364760076404178
31
0
0
LINE
5
125
100
AcDbEntity
8
0
100
AcDbLine
10
57.999998703598976
20
18.364760076404178
30
0
11
57.999998703598976
21
17.966653622411815
31
0
0
LINE
5
126
100
AcDbEntity
8
0
100
AcDbLine
10
57.999998703598976
20
17.966653622411815
30
0
11
58.62728874890513
21
17.966653622411815
31
0
0
LINE
5
127
100
AcDbEntity
8
0
100
AcDbLine
10
58.62728874890513
20
17.966653622411815
30
0
11
58.62728874890513
21
18.364760076404178
31
0
0
LINE
5
128
100
AcDbEntity
8
0
100
AcDbLine
10
58.62728874890513
20
18.364760076404178
30
0
11
59.496454743425545
21
18.364760076404178
31
0
0
SPLINE
5
129
100
AcDbEntity
8
0
100
AcDbSpline
70
1064
71
2
72
6
73
3
74
0
42
0.000000001
43
0.0000000001
44
0.0000000001
40
0
40
0
40
0
40
0.080981600322572511
40
0.080981600322572511
40
0.080981600322572511
10
59.496454743425545
20
18.364760076404178
30
0
10
59.929835538283811
20
18.096713135420181
30
0
10
60.199998654425151
20
17.964760085344878
30
0
0
LINE
5
130
100
AcDbEntity
8
0
100
AcDbLine
10
60.199998654425144
20
17.964760085344874
30
0
11
61.999998614192009
21
17.964760085344874
31
0
0
SPLINE
5
131
100
AcDbEntity
8
0
100
AcDbSpline
70
1064
71
2
72
6
73
3
74
0
42
0.000000001
43
0.0000000001
44
0.0000000001
40
-0.33037223510241376
40
-0.33037223510241376
40
-0.33037223510241376
40
-0
40
-0
40
-0
10
61.999998614192009
20
17.964760085344874
30
0
10
60.283712730402563
20
18.447468296958554
30
0
10
59.041193283697346
20
19.364760054052436
30
0
0
LINE
5
132
100
AcDbEntity
8
0
100
AcDbLine
10
59.041193283697389
20
19.364760054052429
30
0
11
34.799999222159386
21
19.364760054052436
31
0
0
SPLINE
5
133
100
AcDbEntity
8
0
100
AcDbSpline
70
1064
71
2
72
6
73
3
74
0
42
0.000000001
43
0.0000000001
44
0.0000000001
40
-0.33425310721252699
40
-0.33425310721252699
40
-0.33425310721252699
40
-0
40
-0
40
-0
10
34.799999222159386
20
19.364760054052436
30
0
10
33.799999244511127
20
18.564760071933829
30
0
10
31.799999289214611
20
17.964760085344874
30
0
0
ENDSEC
0
SECTION
2
OBJECTS
0
DICTIONARY
5
C
100
AcDbDictionary
3
ACAD_GROUP
350
D
3
ACAD_MLINESTYLE
350
17
0
DICTIONARY
5
D
100
AcDbDictionary
0
DICTIONARY
5
1A
330
C
100
AcDbDictionary
0
DICTIONARY
5
17
100
AcDbDictionary
0
ENDSEC
0
EOF
