0
SECTION
2
HEADER
9
$ACADVER
1
AC1014
9
$HANDSEED
5
FFFF
0
ENDSEC
0
SECTION
2
TABLES
0
TABLE
2
VPORT
5
8
100
AcDbSymbolTable
0
ENDTAB
0
TABLE
2
LTYPE
5
5
100
AcDbSymbolTable
0
LTYPE
5
14
100
AcDbSymbolTableRecord
100
AcDbLinetypeTableRecord
2
BYBLOCK
70
0
0
LTYPE
5
15
100
AcDbSymbolTableRecord
100
AcDbLinetypeTableRecord
2
BYLAYER
70
0
0
ENDTAB
0
TABLE
2
LAYER
5
2
100
AcDbSymbolTable
70
2
0
LAYER
5
50
100
AcDbSymbolTableRecord
100
AcDbLayerTableRecord
2
0
70
0
6
CONTINUOUS
0
ENDTAB
0
TABLE
2
STYLE
5
3
100
AcDbSymbolTable
70
1
0
STYLE
5
11
100
AcDbSymbolTableRecord
100
AcDbTextStyleTableRecord
2
STANDARD
70
0
0
ENDTAB
0
TABLE
2
VIEW
5
6
100
AcDbSymbolTable
70
0
0
ENDTAB
0
TABLE
2
UCS
5
7
100
AcDbSymbolTable
70
0
0
ENDTAB
0
TABLE
2
APPID
5
9
100
AcDbSymbolTable
70
2
0
APPID
5
12
100
AcDbSymbolTableRecord
100
AcDbRegAppTableRecord
2
ACAD
70
0
0
ENDTAB
0
TABLE
2
DIMSTYLE
5
A
100
AcDbSymbolTable
70
1
0
ENDTAB
0
TABLE
2
BLOCK_RECORD
5
1
100
AcDbSymbolTable
70
1
0
BLOCK_RECORD
5
1F
100
AcDbSymbolTableRecord
100
AcDbBlockTableRecord
2
*MODEL_SPACE
0
BLOCK_RECORD
5
1B
100
AcDbSymbolTableRecord
100
AcDbBlockTableRecord
2
*PAPER_SPACE
0
ENDTAB
0
ENDSEC
0
SECTION
2
BLOCKS
0
BLOCK
5
20
100
AcDbEntity
100
AcDbBlockBegin
2
*MODEL_SPACE
0
ENDBLK
5
21
100
AcDbEntity
100
AcDbBlockEnd
0
BLOCK
5
1C
100
AcDbEntity
100
AcDbBlockBegin
2
*PAPER_SPACE
0
ENDBLK
5
1D
100
AcDbEntity
100
AcDbBlockEnd
0
ENDSEC
0
SECTION
2
ENTITIES
0
LINE
5
100
100
AcDbEntity
8
0
100
AcDbLine
10
24.149810382076677
20
8.0385034623874247
30
0
11
24.145999423324906
21
8.0385034623874247
31
0
0
LINE
5
101
100
AcDbEntity
8
0
100
AcDbLine
10
24.145999423324906
20
8.0385034623874247
30
0
11
24.145999423324906
21
7.9340173343752216
31
0
0
LINE
5
102
100
AcDbEntity
8
0
100
AcDbLine
10
24.145999423324906
20
7.9340173343752216
30
0
11
-30.530852017175093
21
7.9340173343752216
31
0
0
LINE
5
103
100
AcDbEntity
8
0
100
AcDbLine
10
-30.530852017175093
20
7.9340173343752216
30
0
11
-30.530852017175093
21
8.1293550437910085
31
0
0
LINE
5
104
100
AcDbEntity
8
0
100
AcDbLine
10
-30.530852017175093
20
8.1293550437910085
30
0
11
-30.535359849338406
21
8.1293550437910085
31
0
0
LINE
5
105
100
AcDbEntity
8
0
100
AcDbLine
10
-30.535359849338406
20
8.1293550437910085
30
0
11
-30.535359849338406
21
5.7103233106159523
31
0
0
LINE
5
106
100
AcDbEntity
8
0
100
AcDbLine
10
-30.535359849338406
20
5.7103233106159523
30
0
11
-29.813868449229282
21
5.7103233106159523
31
0
0
SPLINE
5
107
100
AcDbEntity
8
0
100
AcDbSpline
70
1064
71
2
72
6
73
3
74
0
42
0.000000001
43
0.0000000001
44
0.0000000001
40
0
40
0
40
0
40
0.053107843554468653
40
0.053107843554468653
40
0.053107843554468653
10
-29.813868449229282
20
5.7103233106159523
30
0
10
-29.512473250561815
20
5.7341176684054895
30
0
10
-29.322118388245517
20
5.8768838151427101
30
0
0
SPLINE
5
108
100
AcDbEntity
8
0
100
AcDbSpline
70
1064
71
2
72
6
73
3
74
0
42
0.000000001
43
0.0000000001
44
0.0000000001
40
-0.086727522416105554
40
-0.086727522416105554
40
-0.086727522416105554
40
-0
40
-0
40
-0
10
-29.322118388245517
20
5.8768838151427101
30
0
10
-28.893819948033851
20
6.1687086447293957
30
0
10
-28.52808061854649
20
6.1687086447293957
30
0
0
LINE
5
109
100
AcDbEntity
8
0
100
AcDbLine
10
-28.528080618546468
20
6.1687086447293922
30
0
11
-2.9659123768924855
21
6.1687086447293957
31
0
0
SPLINE
5
110
100
AcDbEntity
8
0
100
AcDbSpline
70
1064
71
2
72
6
73
3
74
0
42
0.000000001
43
0.0000000001
44
0.0000000001
40
-0.073792174919744866
40
-0.073792174919744866
40
-0.073792174919744866
40
-0
40
-0
40
-0
10
-2.9659123768924878
20
6.1687086447293957
30
0
10
-2.5576426954631311
20
6.0898617642762884
30
0
10
-2.3327075925488354
20
5.8357754185249959
30
0
0
SPLINE
5
111
100
AcDbEntity
8
0
100
AcDbSpline
70
1064
71
2
72
6
73
3
74
0
42
0.000000001
43
0.0000000001
44
0.0000000001
40
-0.040945667102021424
40
-0.040945667102021424
40
-0.040945667102021424
40
-0
40
-0
40
-0
10
-2.3327075925488354
20
5.8357754185249959
30
0
10
-2.2200776482521132
20
5.6977125001745179
30
0
10
-2.2052504377542665
20
5.4583061524026188
30
0
0
LINE
5
112
100
AcDbEntity
8
0
100
AcDbLine
10
-2.2052504377542643
20
5.458306152402618
30
0
11
-2.205250437754267
21
5.2494538139387394
31
0
0
LINE
5
113
100
AcDbEntity
8
0
100
AcDbLine
10
-2.205250437754267
20
5.2494538139387394
30
0
11
1.6009279020864575
21
5.2494538139387394
31
0
0
LINE
5
114
100
AcDbEntity
8
0
100
AcDbLine
10
1.6009279020864575
20
5.2494538139387394
30
0
11
1.6009279020864575
21
5.7004129226878932
31
0
0
SPLINE
5
115
100
AcDbEntity
8
0
100
AcDbSpline
70
1064
71
2
72
6
73
3
74
0
42
0.000000001
43
0.0000000001
44
0.0000000001
40
-0.043066087824333854
40
-0.043066087824333854
40
-0.043066087824333854
40
-0
40
-0
40
-0
10
1.6009279020864571
20
5.7004129226878932
30
0
10
1.6560068772008574
20
5.855322540197144
30
0
10
1.859478907043171
20
6.0359081840874298
30
0
0
SPLINE
5
116
100
AcDbEntity
8
0
100
AcDbSpline
70
1064
71
2
72
6
73
3
74
0
42
0.000000001
43
0.0000000001
44
0.0000000001
40
0
40
0
40
0
40
0.056995458290188539
40
0.056995458290188539
40
0.056995458290188539
10
1.859478907043171
20
6.0359081840874298
30
0
10
2.0919120824636908
20
6.203562762257536
30
1.1102230246251565e-15
10
2.3921814306649525
20
6.203562762257536
30
0
0
LINE
5
117
100
AcDbEntity
8
0
100
AcDbLine
10
2.3921814306649538
20
6.2035627622575387
30
-6.1982535830016833e-31
11
11.941736382340448
21
6.203562762257536
31
0
0
SPLINE
5
118
100
AcDbEntity
8
0
100
AcDbSpline
70
1064
71
2
72
6
73
3
74
0
42
0.000000001
43
0.0000000001
44
0.0000000001
40
-0.1023831821961651
40
-0.1023831821961651
40
-0.1023831821961651
40
-0
40
-0
40
-0
10
11.941736382340448
20
6.203562762257536
30
0
10
12.465558333630188
20
6.1453603232253426
30
0
10
12.897919309297912
20
5.8792920305067442
30
0
0
SPLINE
5
119
100
AcDbEntity
8
0
100
AcDbSpline
70
1064
71
2
72
6
73
3
74
0
42
0.000000001
43
0.0000000001
44
0.0000000001
40
-0.35346934928608231
40
-0.35346934928608231
40
-0.35346934928608231
40
-0
40
-0
40
-0
10
12.897919309297912
20
5.8792920305067442
30
0
10
13.413426626440197
20
5.5134481280186716
30
0
10
14.893431504687399
20
2.9857993471919873
30
0
0
LINE
5
120
100
AcDbEntity
8
0
100
AcDbLine
10
14.893431504687399
20
2.9857993471919881
30
0
11
14.893431504687399
21
2.5284944690818967
31
0
0
LINE
5
121
100
AcDbEntity
8
0
100
AcDbLine
10
14.893431504687399
20
2.5284944690818967
30
0
11
18.959287602793481
21
2.5284944690818967
31
0
0
LINE
5
122
100
AcDbEntity
8
0
100
AcDbLine
10
18.959287602793481
20
2.5284944690818967
30
0
11
18.959287602793481
21
2.9774847130445314
31
0
0
SPLINE
5
123
100
AcDbEntity
8
0
100
AcDbSpline
70
1064
71
2
72
6
73
3
74
0
42
0.000000001
43
0.0000000001
44
0.0000000001
40
-0.25730797539936412
40
-0.25730797539936412
40
-0.25730797539936412
40
-0
40
-0
40
-0
10
18.959287602793481
20
2.9774847130445314
30
0
10
19.649402237032344
20
3.9918700790341877
30
0
10
20.672102237169454
20
4.8815359328120005
30
0
0
SPLINE
5
124
100
AcDbEntity
8
0
100
AcDbSpline
70
1064
71
2
72
6
73
3
74
0
42
0.000000001
43
0.0000000001
44
0.0000000001
40
-0.085226083755870652
40
-0.085226083755870652
40
-0.085226083755870652
40
-0
40
-0
40
-0
10
20.672102237169454
20
4.8815359328120005
30
0
10
21.096148578689725
20
5.1574210508636931
30
0
10
21.457823426801848
20
5.1574210508636931
30
0
0
SPLINE
5
125
100
AcDbEntity
8
0
100
AcDbSpline
70
1064
71
2
72
6
73
3
74
0
42
0.000000001
43
0.0000000001
44
0.0000000001
40
-0.10708466957179173
40
-0.10708466957179173
40
-0.10708466957179173
40
-0
40
-0
40
-0
10
21.457823426801848
20
5.1574210508636931
30
0
10
21.704718215374591
20
4.7793634058616812
30
0
10
21.789588298946466
20
4.1544109722869287
30
0
0
LINE
5
126
100
AcDbEntity
8
0
100
AcDbLine
10
21.78958829894647
20
4.1544109722869296
30
0
11
21.789588298946466
21
2.5264484601354131
31
0
0
LINE
5
127
100
AcDbEntity
8
0
100
AcDbLine
10
21.789588298946466
20
2.5264484601354131
30
0
11
23.724990394161978
21
2.5264484601354131
31
0
0
LINE
5
128
100
AcDbEntity
8
0
100
AcDbLine
10
23.724990394161978
20
2.5264484601354131
30
0
11
23.724990394161978
21
5.4926708085302582
31
0
0
SPLINE
5
129
100
AcDbEntity
8
0
100
AcDbSpline
70
1064
71
2
72
6
73
3
74
0
42
0.000000001
43
0.0000000001
44
0.0000000001
40
-0.054122468276126358
40
-0.054122468276126358
40
-0.054122468276126358
40
-0
40
-0
40
-0
10
23.724990394161978
20
5.4926708085302582
30
0
10
23.842082230344232
20
5.6722116240097167
30
0
10
24.151675335057256
20
5.8049982947549905
30
0
0
LINE
5
130
100
AcDbEntity
8
0
100
AcDbLine
10
24.151675335057266
20
5.8049982947549932
30
0
11
24.149810382076677
21
8.0385034623874247
31
0
0
ENDSEC
0
SECTION
2
OBJECTS
0
DICTIONARY
5
C
100
AcDbDictionary
3
ACAD_GROUP
350
D
3
ACAD_MLINESTYLE
350
17
0
DICTIONARY
5
D
100
AcDbDictionary
0
DICTIONARY
5
1A
330
C
100
AcDbDictionary
0
DICTIONARY
5
17
100
AcDbDictionary
0
ENDSEC
0
EOF
